<?xml version="1.0" encoding="utf-8"?>
<!-- Generator: Adobe Illustrator 20.0.0, SVG Export Plug-In . SVG Version: 6.00 Build 0)  -->
<svg version="1.1" id="Layer_1" xmlns="http://www.w3.org/2000/svg" xmlns:xlink="http://www.w3.org/1999/xlink" x="0px" y="0px"
	 viewBox="0 0 161.9 130.6" style="enable-background:new 0 0 161.9 130.6;" xml:space="preserve">
<style type="text/css">
	.st0{fill:#4E60A5;}
</style>
<title>corps-heading-sml-icon</title>
<g id="Layer_2">
	<g id="section_head_icons">
		<path class="st0" d="M12.5,125.3c0,0.9-0.3,1.8-0.8,2.6c-0.5,0.8-1.2,1.4-2.1,1.8c-0.9,0.4-2,0.6-3,0.6c-1.7,0.1-3.3-0.6-4.4-1.8
			c-1.2-1.5-1.7-3.3-1.6-5.1v-0.7c0-1.3,0.2-2.5,0.7-3.7c0.4-1,1.2-1.8,2.1-2.4c1-0.6,2.1-0.9,3.2-0.8c1.5-0.1,3,0.4,4.2,1.4
			c1.1,1,1.7,2.3,1.8,3.8H9.1c0-0.7-0.2-1.4-0.6-1.9c-0.5-0.4-1.2-0.6-1.9-0.6c-0.8-0.1-1.5,0.3-1.9,1c-0.5,0.9-0.7,2-0.6,3.1v1
			c-0.1,1.1,0.1,2.2,0.6,3.2c0.4,0.7,1.2,1.1,2,1c0.7,0,1.3-0.2,1.8-0.6c0.5-0.5,0.7-1.1,0.7-1.8L12.5,125.3z"/>
		<path class="st0" d="M27.1,123.3c0,1.3-0.2,2.5-0.8,3.7c-0.5,1-1.2,1.9-2.2,2.5c-1,0.6-2.1,0.9-3.2,0.9c-1.1,0-2.2-0.3-3.2-0.8
			c-0.9-0.6-1.7-1.4-2.1-2.4c-0.5-1.1-0.8-2.3-0.8-3.6v-0.8c0-1.3,0.2-2.5,0.8-3.7c0.5-1,1.2-1.9,2.2-2.5c1-0.6,2.1-0.9,3.3-0.9
			c1.1,0,2.2,0.3,3.2,0.9c1,0.6,1.7,1.4,2.2,2.4c0.5,1.1,0.8,2.4,0.8,3.6L27.1,123.3z M23.6,122.7c0.1-1.1-0.2-2.2-0.7-3.2
			c-0.4-0.7-1.2-1.1-2-1.1c-1.7,0-2.6,1.3-2.7,3.9v1c-0.1,1.1,0.1,2.2,0.6,3.2c0.4,0.7,1.2,1.2,2.1,1.1c0.8,0,1.6-0.4,2-1.1
			c0.5-1,0.8-2.1,0.7-3.2L23.6,122.7z"/>
		<path class="st0" d="M35.2,125.1h-1.9v5h-3.4v-14.2h5.6c1.4-0.1,2.8,0.3,4,1.1c1,0.8,1.5,1.9,1.4,3.2c0,0.9-0.2,1.7-0.6,2.5
			c-0.5,0.7-1.1,1.2-1.9,1.6l3,5.7v0.1h-3.8L35.2,125.1z M33.3,122.5h2.2c0.5,0,1.1-0.1,1.5-0.5c0.3-0.4,0.5-0.9,0.5-1.4
			c0-0.5-0.1-1-0.5-1.4c-0.4-0.4-0.9-0.6-1.5-0.5h-2.2V122.5z"/>
		<path class="st0" d="M47.4,125.3v4.8h-3.4v-14.2h5.7c1,0,2,0.2,2.9,0.6c0.8,0.4,1.5,1,1.9,1.7c0.5,0.8,0.7,1.6,0.7,2.5
			c0.1,1.3-0.5,2.5-1.5,3.3c-1.2,0.9-2.6,1.3-4.1,1.2H47.4z M47.4,122.7h2.2c0.6,0,1.1-0.1,1.5-0.5c0.4-0.4,0.6-0.9,0.5-1.4
			c0-0.6-0.2-1.1-0.5-1.6c-0.4-0.4-0.9-0.6-1.5-0.6h-2.3V122.7z"/>
		<path class="st0" d="M70,123.3c0,1.3-0.2,2.5-0.8,3.7c-0.5,1-1.2,1.9-2.2,2.5c-1,0.6-2.1,0.9-3.2,0.9c-1.1,0-2.3-0.3-3.2-0.9
			c-0.9-0.6-1.7-1.4-2.2-2.4c-0.5-1.1-0.8-2.4-0.8-3.6v-0.8c0-1.3,0.2-2.5,0.8-3.7c0.5-1,1.3-1.8,2.2-2.4c2-1.2,4.5-1.2,6.5,0
			c1,0.6,1.7,1.4,2.2,2.4c0.5,1.1,0.8,2.4,0.8,3.6L70,123.3z M66.5,122.7c0.1-1.1-0.2-2.2-0.7-3.2c-0.4-0.7-1.2-1.1-2-1.1
			c-1.7,0-2.6,1.3-2.7,3.9v1c-0.1,1.1,0.2,2.2,0.7,3.2c0.4,0.7,1.2,1.2,2.1,1.1c0.8,0,1.6-0.4,2-1.1c0.5-1,0.8-2.1,0.7-3.2
			L66.5,122.7z"/>
		<path class="st0" d="M78.1,125.1h-1.9v5h-3.4v-14.2h5.6c1.4-0.1,2.8,0.3,4,1.1c1,0.8,1.5,1.9,1.4,3.2c0,0.9-0.2,1.7-0.6,2.5
			c-0.5,0.7-1.1,1.2-1.9,1.6l3,5.7v0.1h-3.8L78.1,125.1z M76.2,122.5h2.2c0.5,0,1.1-0.1,1.5-0.5c0.3-0.4,0.5-0.9,0.5-1.4
			c0-0.5-0.1-1-0.5-1.4c-0.4-0.4-0.9-0.6-1.5-0.5h-2.2V122.5z"/>
		<path class="st0" d="M94.9,127.5h-4.7l-0.8,2.7h-3.7l5.2-14.2h3.2l5.2,14.2h-3.7L94.9,127.5z M91,124.9h3.1l-1.5-4.9L91,124.9z"/>
		<path class="st0" d="M111.4,118.6h-4.3v11.6h-3.4v-11.6h-4.2v-2.7h11.9L111.4,118.6z"/>
		<path class="st0" d="M117.6,130.1h-3.4v-14.2h3.4V130.1z"/>
		<path class="st0" d="M133,123.3c0,1.3-0.2,2.5-0.8,3.7c-0.5,1-1.2,1.9-2.2,2.5c-1,0.6-2.1,0.9-3.2,0.9c-1.1,0-2.2-0.3-3.2-0.8
			c-0.9-0.6-1.7-1.4-2.2-2.4c-0.5-1.1-0.8-2.3-0.8-3.6v-0.8c0-1.3,0.2-2.5,0.8-3.7c0.5-1,1.2-1.9,2.2-2.5c2-1.2,4.5-1.2,6.5,0
			c1,0.6,1.7,1.4,2.2,2.4c0.5,1.1,0.8,2.4,0.8,3.6L133,123.3z M129.5,122.7c0.1-1.1-0.2-2.2-0.7-3.2c-0.4-0.7-1.2-1.1-2-1.1
			c-1.7,0-2.6,1.3-2.7,3.9v1c-0.1,1.1,0.2,2.2,0.7,3.2c0.4,0.7,1.2,1.2,2.1,1.1c0.8,0,1.6-0.4,2-1.1c0.5-1,0.8-2.1,0.7-3.2
			L129.5,122.7z"/>
		<path class="st0" d="M147.6,130.1h-3.4l-5-8.8v8.8h-3.4v-14.2h3.4l5,8.8v-8.8h3.4V130.1z"/>
		<path class="st0" d="M158.1,126.4c0-0.5-0.2-0.9-0.5-1.2c-0.6-0.4-1.2-0.7-1.9-0.9c-0.7-0.2-1.5-0.5-2.2-0.9
			c-1.8-0.9-2.8-2.2-2.8-3.7c0-0.8,0.2-1.5,0.7-2.1c0.5-0.6,1.2-1.1,1.9-1.4c0.9-0.3,1.9-0.5,2.8-0.5c0.9,0,1.9,0.2,2.8,0.6
			c0.8,0.3,1.4,0.9,1.9,1.6c0.5,0.7,0.7,1.5,0.7,2.3h-3.4c0-0.5-0.2-1-0.5-1.3c-0.4-0.3-0.9-0.5-1.4-0.5c-0.5,0-1,0.1-1.4,0.4
			c-0.5,0.4-0.7,1.1-0.3,1.7c0.1,0.1,0.2,0.3,0.4,0.3c0.6,0.4,1.3,0.7,2.1,0.9c0.8,0.2,1.7,0.6,2.4,1c1.4,0.7,2.3,2.1,2.3,3.7
			c0,1.2-0.5,2.2-1.4,2.9c-1.1,0.8-2.5,1.1-3.9,1.1c-1.1,0-2.1-0.2-3.1-0.6c-0.9-0.3-1.6-0.9-2.1-1.7c-0.5-0.7-0.7-1.6-0.7-2.5h3.4
			c-0.1,0.6,0.2,1.2,0.6,1.7c0.6,0.4,1.2,0.6,1.9,0.5c0.5,0,0.9-0.1,1.3-0.4C157.9,127.1,158.1,126.8,158.1,126.4z"/>
		<path class="st0" d="M112.5,0.7C97.7-0.6,88.3,5,82.6,11v9.5c10,0.4,15.2,2,19.8,4L98.1,38c-6.4-2.7-13.4-4.1-20.3-4.1
			c-9.1,0-12.1,3.4-12.1,6.7c0,4,4.9,6.5,16.8,10.3c16.7,5,23.8,11.7,23.8,22.5s-9.6,19.9-24.6,22.3v9.6
			c44.4-26.4,57.8-53.9,57.8-53.9C152,26.5,134.6,2.2,112.5,0.7z"/>
		<path class="st0" d="M50.3,94c5.2,3.8,10.9,7.5,17.2,11.3v-8.7C61.7,96.4,55.9,95.5,50.3,94z"/>
		<path class="st0" d="M70.8,82.7c8,0,13.4-2.7,13.4-7.5c0-4.6-4.5-7.5-14.9-10.5c-15-4.3-25.4-10.3-25.4-22
			c0-10.6,8.6-18.9,23.6-21.4v-9c-5.7-6.5-15.5-13-31.2-11.6C14.2,2.2-3,26.5,9.6,51.4c0,0,8.6,17.5,34.6,37.9l3.4-11.9
			C54.8,80.8,62.8,82.6,70.8,82.7z"/>
	</g>
</g>
</svg>
