<?xml version="1.0" encoding="utf-8"?>
<!-- Generator: Adobe Illustrator 20.0.0, SVG Export Plug-In . SVG Version: 6.00 Build 0)  -->
<svg version="1.1" id="Layer_1" xmlns="http://www.w3.org/2000/svg" xmlns:xlink="http://www.w3.org/1999/xlink" x="0px" y="0px"
	 viewBox="0 0 146.8 155.9" style="enable-background:new 0 0 146.8 155.9;" xml:space="preserve">
<style type="text/css">
	.st0{fill:#7C688D;}
	.st1{fill:none;}
</style>
<title>faith-heading-sml-icon</title>
<g id="Layer_2">
	<g id="section_head_icons">
		<path class="st0" d="M53.8,125.7h-5.5v5.6h-3.4v-14.2h9.5v2.7h-6.1v3.3h5.5L53.8,125.7z"/>
		<path class="st0" d="M63,128.7h-4.7l-0.8,2.6h-3.7l5.2-14.2h3.3l5.2,14.2h-3.7L63,128.7z M59.1,126h3.1l-1.5-4.9L59.1,126z"/>
		<path class="st0" d="M73.2,131.3h-3.4v-14.2h3.4L73.2,131.3z"/>
		<path class="st0" d="M87.4,119.8h-4.3v11.5h-3.4v-11.5h-4.2v-2.7h11.9V119.8z"/>
		<path class="st0" d="M101.8,131.3h-3.4v-5.9h-5.1v5.9h-3.4v-14.2h3.4v5.6h5v-5.6h3.4L101.8,131.3z"/>
		<path class="st0" d="M12.1,150.5c0,0.9-0.3,1.8-0.8,2.6c-0.5,0.8-1.2,1.4-2.1,1.8c-0.9,0.4-2,0.6-3,0.6c-1.7,0.1-3.3-0.6-4.4-1.8
			c-1.1-1.5-1.7-3.3-1.6-5.2v-0.7c0-1.3,0.2-2.5,0.7-3.7c0.4-1,1.2-1.8,2.1-2.4c1-0.6,2.1-0.9,3.2-0.9c1.5-0.1,3,0.4,4.1,1.4
			c1.1,1,1.7,2.3,1.8,3.8H8.8c0-0.7-0.2-1.4-0.6-1.9c-0.5-0.4-1.2-0.6-1.9-0.6c-0.8-0.1-1.5,0.3-1.9,1c-0.5,0.9-0.7,2-0.6,3.1v1
			c-0.1,1.1,0.1,2.2,0.6,3.2c0.4,0.7,1.2,1.1,2,1c0.6,0,1.3-0.2,1.7-0.6c0.5-0.5,0.7-1.1,0.7-1.8H12.1z"/>
		<path class="st0" d="M26.8,148.5c0,1.3-0.2,2.5-0.8,3.7c-0.5,1-1.2,1.9-2.2,2.5c-1,0.6-2.1,0.9-3.2,0.9c-1.1,0-2.2-0.3-3.2-0.8
			c-0.9-0.6-1.7-1.4-2.1-2.4c-0.5-1.1-0.8-2.3-0.8-3.6v-0.8c0-1.3,0.2-2.5,0.8-3.7c0.5-1,1.2-1.9,2.2-2.5c1-0.6,2.1-0.9,3.3-0.9
			c1.1,0,2.2,0.3,3.2,0.9c1,0.6,1.7,1.4,2.2,2.4c0.5,1.1,0.8,2.4,0.8,3.6L26.8,148.5z M23.3,147.9c0.1-1.1-0.2-2.2-0.7-3.2
			c-0.4-0.7-1.2-1.1-2-1.1c-1.7,0-2.6,1.3-2.7,3.9v1c-0.1,1.1,0.2,2.2,0.7,3.2c0.4,0.7,1.2,1.2,2.1,1.1c0.8,0,1.6-0.4,2-1.1
			c0.5-1,0.8-2.1,0.7-3.2L23.3,147.9z"/>
		<path class="st0" d="M34.1,141.1l3.2,9.9l3.2-9.9h4.5v14.2h-3.4V152l0.3-6.8l-3.4,10.1h-2.3l-3.5-10.1L33,152v3.3h-3.4v-14.2H34.1
			z"/>
		<path class="st0" d="M52.6,141.1l3.2,9.9l3.2-9.9h4.5v14.2H60V152l0.3-6.8l-3.4,10.1h-2.3l-3.4-10.1l0.3,6.8v3.3h-3.5v-14.2H52.6z
			"/>
		<path class="st0" d="M77.8,141.1v9.3c0,1-0.2,1.9-0.7,2.7c-0.4,0.8-1.1,1.4-1.9,1.8c-0.9,0.4-2,0.6-3,0.6
			c-1.5,0.1-2.9-0.4-4.1-1.4c-1-1-1.6-2.3-1.5-3.7v-9.4H70v9.4c0,1.6,0.8,2.3,2.2,2.3c0.6,0,1.2-0.2,1.6-0.6
			c0.4-0.5,0.6-1.2,0.6-1.9v-9.3L77.8,141.1z"/>
		<path class="st0" d="M92.8,155.3h-3.4l-5-8.9v8.9h-3.5v-14.2h3.4l5,8.9v-8.9h3.4L92.8,155.3z"/>
		<path class="st0" d="M99.6,155.3h-3.4v-14.2h3.4L99.6,155.3z"/>
		<path class="st0" d="M113.9,143.8h-4.3v11.5h-3.4v-11.5H102v-2.6h11.9L113.9,143.8z"/>
		<path class="st0" d="M120,155.3h-3.4v-14.2h3.4V155.3z"/>
		<path class="st0" d="M132.2,149.3h-5.4v3.4h6.4v2.6h-9.8v-14.2h9.8v2.6h-6.4v3h5.4V149.3z"/>
		<path class="st0" d="M142.9,151.6c0-0.5-0.2-0.9-0.5-1.2c-0.6-0.4-1.2-0.7-1.9-0.9c-0.7-0.2-1.5-0.5-2.2-0.9
			c-1.8-0.9-2.8-2.1-2.8-3.7c0-0.8,0.2-1.5,0.7-2.1c0.5-0.6,1.2-1.1,1.9-1.4c0.9-0.3,1.9-0.5,2.8-0.5c0.9,0,1.9,0.2,2.8,0.6
			c0.8,0.3,1.4,0.9,1.9,1.6c0.5,0.7,0.7,1.5,0.7,2.3h-3.4c0-0.5-0.2-1-0.5-1.4c-0.4-0.3-0.9-0.5-1.4-0.5c-0.5,0-1,0.1-1.4,0.4
			c-0.5,0.4-0.7,1.1-0.3,1.7c0.1,0.1,0.2,0.3,0.4,0.3c0.6,0.4,1.3,0.7,2.1,0.9c0.8,0.2,1.6,0.6,2.4,1c1.4,0.7,2.3,2.1,2.3,3.7
			c0,1.2-0.5,2.2-1.4,2.9c-1.1,0.8-2.5,1.1-3.9,1.1c-1.1,0-2.1-0.2-3.1-0.6c-0.9-0.3-1.6-0.9-2.1-1.7c-0.5-0.7-0.7-1.6-0.7-2.5h3.4
			c-0.1,0.6,0.2,1.2,0.6,1.7c0.6,0.4,1.2,0.6,1.9,0.5c0.5,0,0.9-0.1,1.3-0.4C142.7,152.3,142.9,152,142.9,151.6z"/>
		<path class="st1" d="M99.1,92.8l0.3-0.4l-0.9-0.6l0.9,0.6L99.1,92.8z"/>
		<path class="st1" d="M76.9,106.9c0-0.4-0.1-0.7-0.4-1l0,0C76.7,106.2,76.9,106.5,76.9,106.9z"/>
		<path d="M81,35.4c0.1,1,0.2,2.1,0.4,3.1C81.2,37.5,81.1,36.4,81,35.4z"/>
		<path d="M55.2,48.5c0.5,1.1,0.9,2.3,1.3,3.4C56.2,50.7,55.8,49.6,55.2,48.5z"/>
		<path d="M44.7,38.4c0,0.2-0.1,0.4-0.2,0.6C44.6,38.8,44.6,38.6,44.7,38.4z"/>
		<path d="M85.8,51.3c0.5,0.8,1,1.8,1.5,2.6C86.8,53,86.4,52.1,85.8,51.3z"/>
		<path d="M46.7,33.7c-0.3,0-0.6,0.1-0.8,0.3C46.1,33.8,46.4,33.7,46.7,33.7z"/>
		<path d="M95.8,88.6c0.1,0.6,0.4,1.2,0.7,1.7C96.1,89.8,95.9,89.2,95.8,88.6z"/>
		<path d="M44.7,38.1c0-0.2,0.1-0.4,0.1-0.6c0-0.5,0.1-0.9,0.2-1.4c-0.1,0.5-0.2,0.9-0.2,1.4C44.8,37.6,44.8,37.9,44.7,38.1z"/>
		<path d="M43.6,30.1c0.3,0.5,0.6,1.1,0.9,1.7c0.2,0.4,0.4,0.8,0.6,1.1c-0.2-0.4-0.4-0.8-0.6-1.1C44.1,31.2,43.9,30.7,43.6,30.1
			c-0.1-0.2-0.2-0.3-0.3-0.3C43.3,29.9,43.5,29.9,43.6,30.1z"/>
		<path d="M51,40.1c0.8,1.3,1.6,2.7,2.3,4.1C52.6,42.8,51.8,41.5,51,40.1z"/>
		<path d="M55.9,18.7c0.2,0,0.3,0,0.5,0.1C56.2,18.7,56,18.7,55.9,18.7z"/>
		<path d="M68.4,57.5c-0.1-0.2-0.3-0.4-0.4-0.6c-0.5-1-1-2.1-1.5-3.1c0.5,1,1,2.1,1.5,3.1C68.1,57.2,68.2,57.3,68.4,57.5z"/>
		<path d="M60.3,41.3c-1.2-1.7-2.5-3.4-4-4.9c-1-1-1.9-2.1-2.7-3.3c0.8,1.2,1.7,2.3,2.7,3.3C57.8,37.9,59.1,39.6,60.3,41.3z"/>
		<path d="M50.7,19.2c-0.5-0.6-1-1.2-1.5-1.7c-0.1-0.1-0.2-0.2-0.3-0.3c0.1,0.1,0.2,0.2,0.3,0.3C49.8,18,50.2,18.6,50.7,19.2z"/>
		<path d="M75.2,53.7c-0.6-0.6-1.1-1.3-1.5-2.1c-1.4-2.6-2.8-5.3-4.1-8.1c1.3,2.7,2.7,5.4,4.1,8.1C74.1,52.4,74.6,53.1,75.2,53.7z"
			/>
		<path d="M78.2,55.5L78.2,55.5c-0.3-0.1-0.6-0.2-0.9-0.3c-0.8-0.4-1.5-0.9-2.1-1.5c0.6,0.6,1.3,1.1,2.1,1.5
			C77.6,55.3,77.9,55.4,78.2,55.5z"/>
		<path d="M45.9,23.6c0.9,0.3,1.8,0.8,2.5,1.5C47.7,24.4,46.8,23.9,45.9,23.6z"/>
		<path d="M45.2,23.5c0.2,0,0.5,0.1,0.7,0.1C45.7,23.6,45.4,23.5,45.2,23.5z"/>
		<path d="M73.7,35c-1.1-1.7-2.4-3.2-4-4.5c-2.4-2.1-4.8-4.1-7.2-6.2c2.4,2.1,4.8,4.2,7.2,6.2C71.3,31.8,72.6,33.3,73.7,35z"/>
		<path d="M65.8,37c0.7,1,1.4,2.1,2,3.2C67.2,39.1,66.5,38,65.8,37z"/>
		<path d="M80.8,34.8c-0.1-0.3-0.5-0.5-0.8-0.5C80.3,34.3,80.6,34.5,80.8,34.8z"/>
		<path d="M60.8,31.3c-2.5-2.2-4.8-4.8-6.8-7.5C56,26.6,58.3,29.1,60.8,31.3z"/>
		<path d="M95.8,88.6c0-0.2,0-0.3-0.1-0.5c-0.2-2-0.4-4-0.8-6c0.3,2,0.6,4,0.8,6C95.7,88.2,95.7,88.4,95.8,88.6z"/>
		<path d="M91.3,69.7C91.1,68.8,91,67.9,91,67c0-2.9-0.4-5.7-1.4-8.4c1,2.7,1.5,5.6,1.4,8.4C91,67.9,91.1,68.8,91.3,69.7z"/>
		<path d="M43.7,40.2c-0.1,0.2-0.1,0.3-0.2,0.5C43.6,40.5,43.6,40.3,43.7,40.2z"/>
		<path d="M43.9,39.7c-0.1,0.1-0.2,0.3-0.2,0.4C43.7,40,43.8,39.9,43.9,39.7z"/>
		<path d="M68.8,58.1c-0.1-0.2-0.3-0.4-0.4-0.5C68.5,57.7,68.6,57.9,68.8,58.1z"/>
		<path d="M53.1,70.2c0.1-0.2,0.1-0.5-0.1-0.7l-1-1.8l1,1.8C53.1,69.7,53.2,70,53.1,70.2z"/>
		<path d="M57.6,76.2c-0.3-1.3-0.6-2.5-0.9-3.8c-0.1-0.3-0.2-0.6-0.4-0.9c0.2,0.3,0.3,0.6,0.4,0.9C57.1,73.7,57.3,75,57.6,76.2z"/>
		<path d="M76.5,105.9L76.5,105.9c-0.4-0.4-0.8-0.7-1.2-1c-1.6-1.1-3-2.3-4.4-3.6c1.4,1.3,2.9,2.4,4.4,3.5
			C75.8,105.1,76.1,105.5,76.5,105.9z"/>
		<path d="M60,84.5c-0.5-1.5-1-3-1.4-4.5c-0.2-0.6-0.3-1.2-0.5-1.9c0.2,0.6,0.3,1.2,0.5,1.9C59,81.5,59.5,83,60,84.5z"/>
		<path d="M55.2,69.2c0.1-0.2,0.2-0.4,0.2-0.6c0-0.2,0-0.3-0.1-0.5c0.1,0.2,0.1,0.3,0.1,0.5C55.4,68.8,55.3,69,55.2,69.2z"/>
		<path d="M47.8,58.6c0.4,1.2,0.8,2.4,1.4,3.5C48.6,60.9,48.1,59.8,47.8,58.6z"/>
		<path d="M47.6,47.8c-0.7-2-1.4-4.1-2.1-6.2c-0.1-0.4-0.2-0.8-0.4-1.3c0.1,0.4,0.2,0.8,0.4,1.3C46.1,43.7,46.8,45.7,47.6,47.8z"/>
		<path d="M61.8,88.8c0.4,0.9,0.9,1.8,1.4,2.7C62.7,90.6,62.2,89.7,61.8,88.8z"/>
		<path class="st0" d="M108.7,0.5c-29.8-2.6-37.7,23-37.7,23v0.1c0,0-8.6-25.7-38.4-23.1C10.4,2-6.8,26.3,5.8,51.2
			c0,0,11.5,24.8,51.1,49.8c-0.2-0.5-0.4-0.9-0.7-1.4c-1.4-2-2.7-4.1-3.8-6.3c-0.1-0.2-0.1-0.3-0.2-0.5c-2.6-5.5-4.3-11.3-5.1-17.3
			c-0.2-2.3-0.8-4.4-2-6.4c-0.9-1.3-1.8-2.6-2.7-3.9c-1.1-1.4-1.8-2.9-2.2-4.6C40.1,60.3,40,60,40,59.7v-3.2c0-0.1,0.1-0.2,0.1-0.4
			c0.5-2.9,1-5.9,1.5-8.8c0.4-1.6,0.4-3.3-0.1-4.9c-0.9-2.8-1.1-5.8-0.6-8.7c0-1.5,0.5-3,1.3-4.2c0.8-0.9,1-2.1,0.6-3.2
			c-0.1-0.3-0.1-0.7-0.2-1c-0.2-0.9-0.1-1.8,0.4-2.6c0.6-0.9,0.8-1.9,0.8-2.9c0-0.8,0-1.5,0.1-2.3c0.2-1.8,1-2,2.7-2.5
			c0.1,0,0.2,0.4,0.3,0.4h1.2c1.2,1,2,0.8,2.9,1.7c0.5,0.5,0.9,0.8,1.4,1.2s0.7,0.3,1.1-0.2c0.7-1.1,2.2-1.5,3.3-0.8
			c1.1,0.5,2.2,1.2,3.1,2c3.7,3.7,7.7,6.9,11.7,10.2c1.6,1.2,2.9,2.7,3.8,4.5c0.1,0.2,0.2,0.3,0.3,0.5c0.5,0.7,0.9,0.7,1.5,0.1
			c0.9-1,2.1-1.7,3.5-1.8c1.1-0.1,1.6,0.3,1.7,1.3c0.5,4.8,1.9,9.6,4.2,13.9c1.3,2.6,2.7,5.1,4.1,7.7c1.5,2.9,2.4,6.2,2.5,9.5
			c0.3,2.8,0.8,5.6,1.6,8.3c1,4.1,1.7,8.2,2.5,12.3c0.1,0.5,0.2,1,0.3,1.5c0.2,1.3,1,2.5,2.2,3.2c27.2-21,36.1-39.2,36.1-39.2
			C148.2,26.3,130.8,2,108.7,0.5z"/>
		<path d="M51.6,72.7c-0.1,0.3-0.2,0.6-0.3,0.9C51.4,73.3,51.5,73,51.6,72.7z"/>
		<path d="M56,71.4c0.1,0,0.1,0,0.2,0C56.1,71.4,56.1,71.4,56,71.4z"/>
		<path d="M49.1,62.1C50,64,51,65.8,52,67.6C51,65.8,50,63.9,49.1,62.1z"/>
		<path d="M62.4,61c-0.2-0.1-0.3-0.2-0.5-0.4c-0.4-0.4-0.8-0.8-1.2-1.2c0.4,0.4,0.8,0.8,1.2,1.2C62.1,60.8,62.3,60.9,62.4,61z"/>
		<path d="M48.9,36.8l0.3,0.3L48.9,36.8c-0.2-0.2-0.4-0.4-0.6-0.5C48.5,36.4,48.7,36.6,48.9,36.8z"/>
		<path class="st0" d="M97.4,87.2c-0.1-0.5-0.2-1-0.3-1.5c-0.8-4.1-1.5-8.2-2.5-12.3c-0.8-2.7-1.3-5.5-1.6-8.3
			c-0.2-3.3-1-6.6-2.5-9.5c-1.3-2.6-2.7-5.1-4.1-7.7c-2.3-4.3-3.7-9-4.1-13.9c-0.1-1-0.6-1.5-1.7-1.3c-1.4,0.1-2.6,0.8-3.5,1.8
			c-0.6,0.7-1,0.6-1.5-0.1c-0.1-0.1-0.2-0.3-0.3-0.5c-0.9-1.8-2.2-3.3-3.8-4.5c-4-3.3-8-6.5-11.7-10.2c-0.9-0.8-2-1.5-3.1-2.1
			c-1.1-0.7-2.6-0.4-3.3,0.7c0,0,0,0,0,0c-0.3,0.5-0.7,0.5-1.1,0s-0.9-0.4-1.4-0.9c-0.8-0.9-1.7-0.7-2.9-1.7h-1.2
			c-0.1,0-0.2-0.4-0.3-0.4c-1.7,0.5-2.5,1.1-2.7,2.9c-0.1,0.7-0.1,1.4-0.1,2.1c0.1,1-0.2,2-0.8,2.8c-0.4,0.8-0.6,1.7-0.4,2.6
			c0,0.3,0.1,0.7,0.2,1c0.4,1.1,0.1,2.3-0.6,3.2c-0.8,1.2-1.3,2.7-1.3,4.2c-0.5,2.9-0.2,5.9,0.6,8.7c0.5,1.6,0.5,3.3,0.1,4.9
			c-0.6,2.9-1,5.9-1.5,8.8c0,0.1-0.1,0.2-0.1,0.4v3.2c0,0.3,0.1,0.6,0.2,0.9c0.4,1.7,1.1,3.2,2.2,4.6c0.9,1.3,1.8,2.6,2.7,3.9
			c1.2,1.9,1.8,4.1,2,6.4c0.8,6,2.5,11.9,5.1,17.3c0.1,0.2,0.2,0.4,0.2,0.5c1.1,2.2,2.4,4.3,3.8,6.3c0.3,0.4,0.5,0.9,0.7,1.4
			l2.2,1.3c-0.1-0.4-0.2-0.8-0.3-1.2c-0.2-0.7-0.5-1.4-0.8-2.1c-0.1-0.2-0.2-0.3-0.2-0.4c-0.1-0.1-0.2-0.3-0.3-0.4
			c-0.8-1-1.5-2-2.1-3c-0.6-1-1.2-2.1-1.8-3.2s-1-2.2-1.5-3.3c-0.2-0.6-0.5-1.1-0.7-1.7l-0.7-1.7c-0.5-1.3-0.9-2.7-1.3-4.1
			c-0.2-0.9-0.4-1.9-0.6-2.8s-0.3-1.9-0.5-2.8c-0.1-0.5-0.1-0.9-0.2-1.4c-0.2-1.6-0.6-3.2-1.2-4.7c-0.6-1.5-1.4-2.9-2.4-4.1
			c-0.2-0.2-0.3-0.5-0.5-0.7c-1.8-2-2.1-4.3-2.1-6.9c0-1.6,0.2-3.2,0.5-4.7c0.2-1.6,0.5-3.1,0.8-4.7c0.2-1.2,0.4-2.3,0.6-3.5
			s0.4-2.3,0.6-3.5c0-0.2,0.1-0.4,0.2-0.6c0.1-0.2,0.1-0.4,0.2-0.6h0.2c0.1,0.4,0.2,0.8,0.4,1.3c0.7,2.1,1.4,4.1,2.1,6.2
			c2.2,6.1,4.5,12.2,7,18.2c0.3,0.7,0.5,1.4,0.8,2.1c0.1,0.2,0.1,0.3,0.1,0.5c-0.1,0.2-0.1,0.4-0.2,0.6c-0.2-0.1-0.4-0.1-0.5-0.3
			c-0.3-0.4-0.6-0.8-0.9-1.2c-2.2-3.6-4.1-7.4-5.6-11.4c-0.2-0.6-0.5-1.1-0.8-1.6c-0.4,0.8-0.4,1.7,0,2.5c0.1,0.4,0.3,0.8,0.4,1.2
			c0.4,1.2,0.8,2.4,1.4,3.5c0.9,1.9,1.9,3.7,2.9,5.6l1,1.8c0.1,0.2,0.2,0.5,0.1,0.7c0,0.1-0.1,0.2-0.1,0.2c-0.5,0.7-0.9,1.4-1.3,2.2
			c-0.1,0.3-0.2,0.6-0.3,0.9l0.1,0.1c0.2-0.1,0.5-0.2,0.8-0.4c0.9-0.5,1.8-1.1,2.8-1.6c0.2-0.1,0.5-0.2,0.7-0.3c0.1,0,0.2,0,0.3,0
			c0.1,0,0.1,0,0.2,0c0.1,0,0.1,0.1,0.2,0.1c0.2,0.3,0.3,0.6,0.4,0.9c0.3,1.2,0.6,2.5,0.9,3.8c0.2,0.6,0.3,1.3,0.4,1.9
			s0.3,1.2,0.5,1.9c0.4,1.5,0.9,3,1.4,4.5c0.5,1.5,1.1,2.9,1.8,4.3c0.4,0.9,0.9,1.8,1.4,2.7c2,3.6,4.6,7,7.6,9.9
			c1.4,1.3,2.9,2.4,4.4,3.5c0.4,0.3,0.8,0.6,1.2,1l2.1-1.2c-0.3-0.2-0.7-0.5-1-0.7c-1.3-0.8-2.5-1.7-3.6-2.6c-1.1-0.9-2.2-1.9-3.2-3
			c-1-1.1-1.9-2.2-2.8-3.4c-0.9-1.2-1.7-2.4-2.5-3.6c-1.3-1.9-2.3-4-3.2-6.1c-0.4-1.1-0.8-2.1-1.2-3.2s-0.7-2.2-0.9-3.3
			c-0.8-3.1-1.7-6.1-2.8-9.1c-0.8-2.2-1.7-4.5-2.5-6.7L54,60.6c-1.1-2.7-2.2-5.4-3.2-8.1c-0.6-1.6-1.1-3.3-1.6-5
			c-0.7-2.8-1.3-5.5-1.9-8.3c0-0.2-0.1-0.3-0.1-0.5c0-0.2,0-0.4,0-0.5c0-0.4,0.1-0.7,0.2-1.1c0-0.2,0.1-0.4,0.2-0.5
			c0.1-0.2,0.4-0.3,0.6-0.2c0.3,0.1,0.5,0.3,0.7,0.5l0.3,0.3c0.1,0.1,0.2,0.2,0.2,0.3l1.6,2.7c0.8,1.3,1.6,2.7,2.3,4.1
			c0.7,1.4,1.4,2.8,2,4.2c0.5,1.1,0.9,2.3,1.3,3.4s0.9,2.2,1.4,3.3c0.7,1.5,1.7,2.9,2.8,4.2c0.4,0.4,0.8,0.8,1.2,1.2
			c0.1,0.1,0.3,0.3,0.5,0.4l0.5,0.4l0.2-0.1l-0.1-0.4c0-0.1-0.1-0.3-0.2-0.4c-1.7-3.5-3.4-7-5-10.6c-1.5-3.8-3.3-7.4-5.2-11
			c-0.4-0.7-0.8-1.3-1.2-2s-0.9-1.3-1.3-1.9c-0.8-1.1-2-1.6-3.3-1.4c-0.3,0-0.6,0.1-0.8,0.3c-0.2,0.2-0.4,0.4-0.5,0.7
			c-0.1,0.5-0.2,0.9-0.3,1.4c-0.1,0.5-0.2,0.9-0.2,1.4c0,0.2,0,0.4-0.1,0.6s0,0.2-0.1,0.3c0,0.2-0.1,0.4-0.2,0.6
			c-0.1,0.3-0.3,0.6-0.6,0.8c-0.1,0.1-0.2,0.3-0.2,0.4c-0.1,0.2-0.1,0.3-0.2,0.5c-0.2,0.2-0.4,0.4-0.6,0.5c-0.1-0.2-0.4-0.4-0.4-0.6
			c-0.1-0.5-0.1-0.9-0.2-1.4s-0.1-0.9-0.1-1.4c0-0.5,0-1.1-0.1-1.7c-0.1-1.6,0.1-3.3,0.4-4.9c0.1-0.3,0.2-0.7,0.4-1
			c0.1-0.2,0.2-0.3,0.3-0.3s0.2,0.1,0.3,0.3c0.3,0.5,0.6,1.1,0.9,1.7c0.2,0.4,0.4,0.8,0.6,1.1l0.2-0.1c0-0.6,0-1.2,0-1.8
			c-0.2-2.1-0.5-4.2-0.7-6.4c-0.1-0.3-0.1-0.7,0.1-1c0.1-0.2,0.3-0.3,0.6-0.3c0.2,0,0.5,0.1,0.7,0.1c0.9,0.3,1.8,0.8,2.5,1.5
			c0.2,0.2,0.4,0.5,0.6,0.8c0.8,1.2,1.6,2.4,2.3,3.6c0.7,1.2,1.5,2.4,2.3,3.6c0.8,1.2,1.7,2.3,2.7,3.3c1.5,1.5,2.8,3.2,4,4.9
			c2,2.9,3.6,6,4.8,9.3c0.4,1.1,0.9,2.1,1.4,3.2s1,2.1,1.5,3.1c0.1,0.2,0.2,0.4,0.4,0.6c0.1,0.2,0.3,0.4,0.4,0.5l0.2-0.1
			c0-0.1,0-0.2,0-0.2c0-0.1,0-0.2,0-0.2c-0.4-1.2-0.7-2.3-1.1-3.5l-0.6-1.7c-0.4-1.2-0.8-2.3-1.2-3.5c-0.6-1.7-1.3-3.5-2.1-5.1
			c-0.7-1.5-1.6-2.8-2.5-4.1c-0.5-0.7-1-1.3-1.5-1.9s-1-1.2-1.6-1.9c-1.9-2.2-3.6-4.5-5.1-6.9c-0.5-0.8-1-1.6-1.5-2.5
			c-0.3-0.5-0.7-1-1-1.5c-0.1-0.2-0.3-0.5-0.5-0.7c-0.3-0.4-0.7-0.8-1-1.1c-1-0.8-2.2-1.4-3.5-1.6c-0.2,0-0.4-0.1-0.6-0.1
			c-0.1,0-0.2-0.1-0.3-0.2c0,0-0.1-0.1-0.1-0.1c0-0.3,0-0.5,0-0.8c0-0.4,0.1-0.9,0.2-1.3c0.1-0.4,0.2-0.9,0.3-1.3
			c0.1-0.3,0.2-0.6,0.4-0.8c0.2-0.2,0.4-0.4,0.6-0.5c0.6-0.2,1.2-0.2,1.7,0.1c0.4,0.2,0.7,0.4,1,0.7c0.1,0.1,0.2,0.2,0.3,0.3
			c0.5,0.6,1,1.1,1.5,1.7c0.5,0.6,0.9,1.2,1.3,1.8c0.6,1,1.2,1.9,1.9,2.8c2,2.7,4.3,5.3,6.9,7.5c1.9,1.7,3.6,3.6,5,5.7
			c0.7,1,1.4,2.1,2,3.2s1.2,2.2,1.8,3.4c1.3,2.7,2.7,5.4,4.1,8.1c0.4,0.8,0.9,1.5,1.5,2.1c0.6,0.6,1.3,1.1,2.1,1.5
			c0.3,0.1,0.6,0.2,0.9,0.3l0.1-0.2c-0.2-0.3-0.4-0.7-0.6-1c-1.8-2.2-3.3-4.6-4.5-7.2c-0.4-0.9-0.8-1.7-1.1-2.6
			c-0.9-2.3-2-4.4-3.4-6.5c-1-1.5-2.1-2.9-3.4-4.3c-0.4-0.5-0.8-0.9-1.3-1.3c-1.5-1.5-3-3-4.5-4.6c-0.7-0.8-1.4-1.6-2.1-2.4
			c-0.7-0.8-1.4-1.7-2-2.5c-0.3-0.4-0.5-0.7-0.7-1.1s-0.5-0.8-0.7-1.2c-0.2-0.3-0.2-0.7,0-1c0.1-0.1,0.2-0.2,0.3-0.2
			c0.2-0.1,0.4-0.3,0.7-0.4c0.3-0.2,0.6-0.3,1-0.3c0.2,0,0.3,0,0.5,0.1c0.2,0.1,0.3,0.2,0.5,0.3c1.9,1.7,3.8,3.4,5.7,5.1
			c2.4,2.1,4.8,4.2,7.2,6.2c1.6,1.3,2.9,2.8,4,4.5c1.1,1.7,1.9,3.6,2.5,5.5c1.1,3.7,2.7,7.2,4.9,10.3c1,1.4,2.2,2.6,3.3,3.9
			c0.2,0.2,0.4,0.3,0.6,0.4l0.2-0.1l-0.4-0.8c-0.1-0.3-0.3-0.5-0.4-0.8c-0.5-0.9-1-1.7-1.5-2.6c-1-1.8-1.9-3.6-2.8-5.4
			c-0.4-0.9-0.8-1.8-1.2-2.8c-0.6-1.5-1.2-3-1.7-4.6c-0.3-0.9-0.3-1.3-0.1-1.8c0.1-0.2,0.3-0.4,0.5-0.6l0.4-0.3
			c0.4-0.3,0.9-0.6,1.3-0.8c0.2-0.1,0.4-0.1,0.6-0.2c0.3,0,0.7,0.2,0.8,0.5c0.1,0.2,0.2,0.4,0.2,0.6c0.1,1,0.2,2.1,0.4,3.1
			c0.7,4.5,2.2,8.9,4.5,12.8c0.5,0.8,1,1.8,1.5,2.6c0.9,1.5,1.7,3,2.3,4.7c1,2.7,1.5,5.6,1.4,8.4c0,0.9,0.1,1.8,0.3,2.7
			c0.2,0.9,0.5,1.7,0.8,2.6c1.3,3.1,2.2,6.4,2.8,9.7c0.3,2,0.6,4,0.8,6c0,0.2,0,0.3,0.1,0.5c0.1,0.6,0.3,1.3,0.7,1.8
			c0.3,0.4,0.7,0.7,1.1,1l0.4,0.3l1.5-1.2C98.4,89.7,97.6,88.5,97.4,87.2z"/>
		<path d="M68.7,38c-1-1.5-2.2-2.9-3.4-4.3C66.5,35.1,67.6,36.5,68.7,38z"/>
		<path d="M47.2,38.1c0-0.4,0.1-0.7,0.2-1.1C47.3,37.4,47.3,37.7,47.2,38.1z"/>
		<path d="M78.2,55.3c-0.2-0.3-0.4-0.7-0.6-1C77.9,54.6,78.1,55,78.2,55.3z"/>
		<path d="M47.5,37c0-0.2,0.1-0.4,0.2-0.5C47.6,36.7,47.5,36.8,47.5,37z"/>
		<path d="M58.4,35.7c-1.9-2.2-3.6-4.5-5.2-6.9C54.8,31.2,56.6,33.5,58.4,35.7z"/>
		<path d="M45.6,16.8c0.2-0.2,0.4-0.4,0.6-0.5C46,16.4,45.8,16.6,45.6,16.8z"/>
		<path d="M62.2,85.2c-0.4-1.1-0.8-2.1-1.2-3.2C61.5,83,61.8,84.1,62.2,85.2z"/>
		<path d="M70.8,98.3c-1-1.1-1.9-2.2-2.8-3.4C68.9,96.1,69.8,97.2,70.8,98.3z"/>
		<path d="M67.2,52.2c-0.4-1.2-0.8-2.3-1.2-3.5C66.5,49.9,66.9,51.1,67.2,52.2z"/>
		<path d="M57.4,69.5c-0.8-2.2-1.7-4.5-2.5-6.7C55.7,65,56.6,67.3,57.4,69.5z"/>
		<path d="M45,18.9c0.1-0.4,0.2-0.9,0.3-1.3C45.1,18.1,45,18.5,45,18.9z"/>
		<path d="M45.2,21.4c-0.1,0-0.2-0.1-0.3-0.2C45,21.3,45.1,21.3,45.2,21.4z"/>
		<path d="M61.5,39.5c-0.5-0.7-1-1.3-1.5-1.9C60.5,38.2,61,38.8,61.5,39.5z"/>
		<path d="M77.6,104c-1.3-0.8-2.5-1.7-3.6-2.6C75.1,102.3,76.3,103.2,77.6,104z"/>
		<path d="M44.6,23.8c-0.1,0.3-0.1,0.7-0.1,1c0.2,2.1,0.5,4.2,0.7,6.4c-0.2-2.1-0.5-4.2-0.7-6.4C44.5,24.5,44.5,24.1,44.6,23.8z"/>
		<path d="M67.8,54c0.4,1.2,0.7,2.3,1.1,3.5c0,0.1,0,0.2,0,0.2c0-0.1,0-0.2,0-0.2C68.5,56.4,68.2,55.2,67.8,54z"/>
		<path d="M82.8,50.7c-1-1.8-1.9-3.6-2.7-5.4C80.9,47.2,81.8,49,82.8,50.7z"/>
		<path d="M50.2,24.2c0.2,0.2,0.3,0.4,0.5,0.7c0.3,0.5,0.7,1,1,1.5c-0.3-0.5-0.7-1-1-1.5C50.6,24.6,50.4,24.4,50.2,24.2z"/>
		<path d="M49.2,23.1c0.4,0.3,0.7,0.7,1,1.1C50,23.8,49.6,23.4,49.2,23.1z"/>
		<path d="M44.8,20.2c0-0.4,0.1-0.9,0.2-1.3C44.9,19.3,44.9,19.8,44.8,20.2c0,0.3,0,0.5,0,0.8C44.8,20.8,44.8,20.5,44.8,20.2z"/>
		<path d="M45.2,23.5c-0.2,0-0.5,0.1-0.6,0.3C44.7,23.6,45,23.5,45.2,23.5z"/>
		<path d="M57.4,69.5c1.1,3,2,6,2.8,9.1c0.3,1.1,0.6,2.2,0.9,3.3c-0.3-1.1-0.7-2.2-0.9-3.3C59.4,75.5,58.5,72.5,57.4,69.5z"/>
		<path d="M42.2,36.1c0,0.5,0,1.1,0.1,1.7s0.1,0.9,0.1,1.4c0-0.5-0.1-0.9-0.1-1.4C42.2,37.2,42.2,36.6,42.2,36.1z"/>
		<path d="M70.8,98.3c1,1.1,2.1,2.1,3.2,3C72.9,100.4,71.8,99.4,70.8,98.3z"/>
		<path d="M47.4,39.2c0-0.2-0.1-0.3-0.1-0.5C47.3,38.8,47.3,39,47.4,39.2c0.6,2.8,1.2,5.6,1.9,8.3c0.4,1.7,1,3.3,1.6,5
			c-0.6-1.6-1.1-3.3-1.6-5C48.6,44.7,48,42,47.4,39.2z"/>
		<path d="M68.9,58l-0.2,0.1l0,0L68.9,58z"/>
		<path d="M84.7,54.1l0.4,0.8L85,55.1l0.2-0.1L84.7,54.1z"/>
		<path d="M77.2,38c0.5,1.5,1.1,3.1,1.7,4.6c0.4,0.9,0.8,1.9,1.2,2.8c-0.4-0.9-0.8-1.8-1.2-2.8C78.2,41.1,77.7,39.6,77.2,38z"/>
		<path d="M77.6,35.7c-0.2,0.2-0.4,0.3-0.5,0.6C77.3,36,77.4,35.8,77.6,35.7z"/>
		<path d="M79.4,34.5c0.2-0.1,0.4-0.1,0.6-0.2C79.8,34.4,79.6,34.4,79.4,34.5z"/>
		<path d="M79.4,34.5c-0.5,0.2-0.9,0.5-1.3,0.8l-0.4,0.3l0.4-0.3C78.5,35,78.9,34.7,79.4,34.5z"/>
		<path d="M68.7,38c1.4,2,2.5,4.2,3.4,6.5c0.3,0.9,0.7,1.8,1.1,2.6c-0.4-0.9-0.8-1.7-1.1-2.6C71.2,42.2,70,40,68.7,38z"/>
		<path d="M59.5,27.8c1.5,1.6,3,3.1,4.5,4.6c0.4,0.4,0.9,0.9,1.3,1.3c-0.4-0.5-0.8-0.9-1.3-1.3C62.5,30.9,61,29.3,59.5,27.8z"/>
		<path d="M78.2,55.3l-0.1,0.2l0,0L78.2,55.3z"/>
		<path d="M54.6,21.7c0.2,0.4,0.5,0.8,0.7,1.1c0.7,0.9,1.3,1.7,2,2.5c-0.7-0.8-1.3-1.7-2-2.5C55.1,22.5,54.8,22.1,54.6,21.7z"/>
		<path d="M54.9,19c0.3-0.2,0.6-0.3,1-0.3C55.5,18.7,55.2,18.8,54.9,19c-0.2,0.1-0.4,0.3-0.7,0.4c-0.1,0.1-0.2,0.2-0.3,0.2
			c0.1-0.1,0.2-0.2,0.3-0.2C54.5,19.2,54.7,19.1,54.9,19z"/>
		<path d="M48.1,74.1c-0.1-0.8-0.3-1.6-0.5-2.4C47.8,72.5,48,73.3,48.1,74.1z"/>
		<path d="M47.6,71.7c-0.2-0.8-0.5-1.5-0.8-2.3C47.2,70.2,47.4,71,47.6,71.7z"/>
		<path d="M48.7,78.4c-0.2-0.9-0.3-1.9-0.5-2.8C48.4,76.5,48.5,77.4,48.7,78.4z"/>
		<path d="M53.4,92c-0.5-1.1-1-2.2-1.5-3.3C52.4,89.8,52.9,91,53.4,92z"/>
		<path d="M57.3,98.2c-0.8-1-1.5-2-2.1-3C55.8,96.3,56.5,97.3,57.3,98.2z"/>
		<path d="M49.3,81.2c-0.2-0.9-0.4-1.9-0.6-2.8C48.9,79.3,49.1,80.3,49.3,81.2z"/>
		<path d="M41.9,57.7c0-1.6,0.2-3.2,0.5-4.7C42.1,54.6,42,56.2,41.9,57.7z"/>
		<path d="M55.7,71.4c0.1,0,0.2,0,0.3,0C55.9,71.4,55.8,71.4,55.7,71.4z"/>
		<path d="M54.7,68.9c-0.3-0.4-0.6-0.8-0.9-1.2C54.1,68.2,54.4,68.6,54.7,68.9z"/>
		<path d="M43.8,44.9c-0.2,1.2-0.4,2.3-0.6,3.5c-0.3,1.5-0.6,3.1-0.8,4.7c0.2-1.6,0.5-3.1,0.8-4.7C43.4,47.2,43.7,46.1,43.8,44.9z"
			/>
		<path d="M44.6,40.9c-0.1,0.2-0.1,0.4-0.2,0.6c-0.2,1.2-0.4,2.3-0.6,3.5c0.2-1.2,0.4-2.3,0.6-3.5C44.5,41.3,44.6,41.1,44.6,40.9z"
			/>
		<path d="M49.3,81.2c0.3,1.4,0.8,2.8,1.3,4.1l0.7,1.7l-0.7-1.7C50.1,84,49.6,82.6,49.3,81.2z"/>
		<path d="M57.6,98.7c0.1,0.1,0.2,0.3,0.2,0.4c0.3,0.7,0.6,1.4,0.8,2.1c-0.2-0.7-0.5-1.4-0.8-2.1C57.8,98.9,57.7,98.8,57.6,98.7z"/>
	</g>
</g>
</svg>
