<?xml version="1.0" encoding="utf-8"?>
<!-- Generator: Adobe Illustrator 20.0.0, SVG Export Plug-In . SVG Version: 6.00 Build 0)  -->
<svg version="1.1" id="Layer_1" xmlns="http://www.w3.org/2000/svg" xmlns:xlink="http://www.w3.org/1999/xlink" x="0px" y="0px"
	 viewBox="0 0 15.6 26.7" style="enable-background:new 0 0 15.6 26.7;" xml:space="preserve">
<path d="M0,2.2C0,2,0.1,1.8,0.3,1.6l1.3-1.3C1.7,0.1,1.9,0,2.2,0s0.5,0.1,0.7,0.3l12.4,12.5c0.2,0.1,0.3,0.4,0.3,0.6
	s-0.1,0.4-0.3,0.6L2.8,26.5c-0.1,0.2-0.4,0.3-0.6,0.3s-0.4-0.1-0.6-0.3l-1.3-1.4C0.1,25,0,24.7,0,24.5c0-0.2,0.1-0.4,0.3-0.6
	l10.5-10.5L0.3,2.8C0.1,2.7,0,2.4,0,2.2z"/>
</svg>
