<?xml version="1.0" encoding="utf-8"?>
<!-- Generator: Adobe Illustrator 20.0.0, SVG Export Plug-In . SVG Version: 6.00 Build 0)  -->
<svg version="1.1" id="Layer_1" xmlns="http://www.w3.org/2000/svg" xmlns:xlink="http://www.w3.org/1999/xlink" x="0px" y="0px"
	 viewBox="0 0 169 158.2" style="enable-background:new 0 0 169 158.2;" xml:space="preserve">
<style type="text/css">
	.st0{fill:#6B8749;}
</style>
<title>health-heading-sml-icon</title>
<g id="Layer_2">
	<g id="section_head_icons">
		<path class="st0" d="M57.4,133.7H54v-5.9h-5v5.9h-3.5v-14.2h3.4v5.6h5v-5.6h3.4L57.4,133.7z"/>
		<path class="st0" d="M69.4,127.6H64v3.4h6.4v2.6h-9.8v-14.3h9.8v2.7H64v3h5.4V127.6z"/>
		<path class="st0" d="M80.9,131h-4.7l-0.8,2.7h-3.7l5.2-14.2h3.2l5.2,14.2h-3.7L80.9,131z M77,128.3h3.1l-1.5-4.9L77,128.3z"/>
		<path class="st0" d="M90.9,131h6v2.6h-9.4v-14.2h3.4V131z"/>
		<path class="st0" d="M108.4,122.1h-4.2v11.6h-3.4v-11.6h-4.2v-2.7h11.9L108.4,122.1z"/>
		<path class="st0" d="M122.8,133.7h-3.4v-5.9h-5v5.9H111v-14.2h3.4v5.6h5v-5.6h3.4V133.7z"/>
		<path class="st0" d="M3.6,152.8v4.8H0.2v-14.2h5.7c1,0,2,0.2,2.9,0.6c0.8,0.4,1.5,1,1.9,1.7c0.5,0.8,0.7,1.6,0.7,2.5
			c0.1,1.3-0.5,2.5-1.5,3.3c-1.2,0.9-2.6,1.3-4.1,1.2L3.6,152.8z M3.6,150.2h2.2c0.6,0,1.1-0.1,1.5-0.5s0.6-0.9,0.5-1.4
			c0-0.6-0.2-1.1-0.5-1.6c-0.4-0.4-0.9-0.6-1.5-0.6H3.6V150.2z"/>
		<path class="st0" d="M19.5,152.6h-1.8v5h-3.5v-14.2h5.6c1.4-0.1,2.8,0.3,4,1.1c1,0.8,1.5,2,1.4,3.2c0,0.9-0.2,1.7-0.6,2.5
			c-0.5,0.7-1.1,1.2-1.9,1.6l3,5.7v0.1H22L19.5,152.6z M17.6,150h2.2c0.5,0,1.1-0.1,1.5-0.5c0.3-0.4,0.5-0.9,0.5-1.4s-0.1-1-0.5-1.4
			s-0.9-0.6-1.5-0.5h-2.2V150z"/>
		<path class="st0" d="M40.3,150.8c0,1.3-0.2,2.5-0.8,3.7c-0.5,1-1.2,1.9-2.2,2.5s-2.1,0.9-3.2,0.9c-1.1,0-2.2-0.3-3.2-0.8
			c-0.9-0.6-1.7-1.4-2.2-2.4c-0.5-1.1-0.8-2.3-0.8-3.6v-0.8c0-1.3,0.2-2.5,0.8-3.7c0.5-1,1.2-1.9,2.2-2.5c2-1.2,4.5-1.2,6.5,0
			c1,0.6,1.7,1.4,2.2,2.4c0.5,1.1,0.8,2.4,0.8,3.6L40.3,150.8z M36.8,150.2c0.1-1.1-0.2-2.2-0.7-3.2c-0.4-0.7-1.2-1.1-2-1.1
			c-1.7,0-2.6,1.3-2.7,3.9v1c-0.1,1.1,0.2,2.2,0.7,3.2c0.4,0.7,1.2,1.2,2.1,1.1c0.8,0,1.6-0.4,2-1.1c0.5-1,0.8-2.1,0.7-3.2
			L36.8,150.2z"/>
		<path class="st0" d="M52,152h-5.5v5.7h-3.4v-14.2h9.5v2.6h-6.1v3.3H52V152z"/>
		<path class="st0" d="M63.8,151.6h-5.4v3.4h6.4v2.6H55v-14.2h9.8v2.6h-6.4v3h5.4V151.6z"/>
		<path class="st0" d="M74.5,153.9c0-0.5-0.2-0.9-0.5-1.2c-0.6-0.4-1.2-0.7-1.9-0.9c-0.7-0.2-1.5-0.5-2.2-0.9
			c-1.8-0.9-2.7-2.2-2.7-3.7c0-0.8,0.2-1.5,0.7-2.1s1.2-1.1,1.9-1.4c0.9-0.3,1.9-0.5,2.8-0.5s1.9,0.2,2.8,0.6
			c0.8,0.3,1.4,0.9,1.9,1.6c0.5,0.7,0.7,1.5,0.7,2.3h-3.4c0-0.5-0.2-1-0.5-1.4c-0.4-0.3-0.9-0.5-1.4-0.5s-1,0.1-1.4,0.4
			c-0.3,0.2-0.5,0.6-0.5,1s0.2,0.8,0.6,1c0.6,0.4,1.3,0.7,2.1,0.9c0.8,0.2,1.7,0.6,2.4,1c1.4,0.7,2.3,2.1,2.3,3.7
			c0,1.2-0.5,2.2-1.4,2.9c-1.1,0.8-2.5,1.1-3.9,1.1c-1.1,0-2.1-0.2-3.1-0.6c-0.9-0.3-1.6-0.9-2.1-1.7c-0.5-0.7-0.7-1.6-0.7-2.5h3.2
			c-0.1,0.6,0.2,1.2,0.6,1.7c0.6,0.4,1.2,0.6,1.9,0.5c0.5,0,0.9-0.1,1.3-0.4C74.4,154.6,74.5,154.3,74.5,153.9z"/>
		<path class="st0" d="M88.1,153.9c0-0.5-0.2-0.9-0.5-1.2c-0.6-0.4-1.2-0.7-1.9-0.9c-0.7-0.2-1.5-0.5-2.2-0.9
			c-1.8-0.9-2.8-2.1-2.8-3.7c0-0.8,0.2-1.5,0.7-2.1s1.2-1.1,1.9-1.4c0.9-0.3,1.9-0.5,2.8-0.5s1.9,0.2,2.8,0.6
			c0.8,0.3,1.4,0.9,1.9,1.6c0.5,0.7,0.7,1.5,0.7,2.3h-3.4c0-0.5-0.2-1-0.5-1.4c-0.4-0.3-0.9-0.5-1.4-0.5s-1,0.1-1.4,0.4
			c-0.3,0.2-0.5,0.6-0.5,1s0.2,0.8,0.6,1c0.6,0.4,1.3,0.7,2.1,0.9c0.8,0.2,1.7,0.6,2.4,1c1.4,0.7,2.3,2.1,2.3,3.7
			c0,1.2-0.5,2.2-1.4,2.9c-1.1,0.8-2.5,1.2-3.9,1.1c-1.1,0-2.1-0.2-3.1-0.6c-0.9-0.3-1.6-0.9-2.1-1.7c-0.5-0.7-0.7-1.6-0.7-2.5h3.4
			c-0.1,0.6,0.2,1.2,0.6,1.7c0.6,0.4,1.2,0.6,1.9,0.5c0.5,0,0.9-0.1,1.3-0.4C87.9,154.7,88.1,154.3,88.1,153.9z"/>
		<path class="st0" d="M97.9,157.7h-3.4v-14.2h3.4V157.7z"/>
		<path class="st0" d="M113.3,150.8c0,1.3-0.2,2.5-0.8,3.7c-0.5,1-1.2,1.9-2.2,2.5s-2.1,0.9-3.2,0.9s-2.2-0.3-3.2-0.8
			c-0.9-0.6-1.7-1.4-2.2-2.4c-0.5-1.1-0.8-2.3-0.8-3.6v-0.8c0-1.3,0.2-2.5,0.8-3.7c0.5-1,1.2-1.9,2.2-2.5c2-1.2,4.5-1.2,6.5,0
			c1,0.6,1.7,1.4,2.2,2.4c0.5,1.1,0.8,2.4,0.8,3.6L113.3,150.8z M109.8,150.2c0.1-1.1-0.2-2.2-0.7-3.2c-0.4-0.7-1.2-1.1-2-1.1
			c-1.7,0-2.6,1.3-2.7,3.9v1c-0.1,1.1,0.2,2.2,0.7,3.2c0.4,0.7,1.2,1.2,2.1,1.1c0.8,0,1.6-0.4,2-1.1c0.5-1,0.8-2.1,0.7-3.2
			L109.8,150.2z"/>
		<path class="st0" d="M128,157.7h-3.4l-5-8.9v8.9h-3.4v-14.2h3.4l5,8.9v-8.9h3.4V157.7z"/>
		<path class="st0" d="M139.4,155h-4.7l-0.8,2.7h-3.7l5.2-14.2h3.2l5.2,14.2h-3.6L139.4,155z M135.5,152.3h3.1l-1.5-4.9L135.5,152.3
			z"/>
		<path class="st0" d="M149.3,155h6v2.6h-9.4v-14.2h3.4V155z"/>
		<path class="st0" d="M165.1,153.9c0-0.5-0.2-0.9-0.5-1.2c-0.6-0.4-1.2-0.7-1.9-0.9s-1.5-0.5-2.2-0.9c-1.8-0.9-2.8-2.1-2.8-3.7
			c0-0.8,0.2-1.5,0.7-2.1s1.2-1.1,1.9-1.4c0.9-0.3,1.9-0.5,2.8-0.5c0.9,0,1.9,0.2,2.8,0.6c0.8,0.3,1.4,0.9,1.9,1.6
			c0.5,0.7,0.7,1.5,0.7,2.3h-3.4c0-0.5-0.2-1-0.5-1.4c-0.4-0.3-0.9-0.5-1.4-0.5s-1,0.1-1.4,0.4c-0.3,0.2-0.5,0.6-0.5,1
			s0.2,0.8,0.6,1c0.6,0.4,1.3,0.7,2.1,0.9s1.7,0.6,2.4,1c1.4,0.7,2.3,2.1,2.3,3.7c0,1.2-0.5,2.2-1.4,2.9c-1.1,0.8-2.5,1.1-3.9,1.1
			c-1.1,0-2.1-0.2-3.1-0.6c-0.9-0.3-1.6-0.9-2.1-1.7c-0.5-0.7-0.7-1.6-0.7-2.5h3.4c-0.1,0.6,0.2,1.2,0.6,1.7
			c0.6,0.4,1.2,0.6,1.9,0.5c0.5,0,0.9-0.1,1.3-0.4C164.9,154.6,165.1,154.3,165.1,153.9z"/>
		<path class="st0" d="M17.7,53.8h11.6c1.6-2.9,3.3-5.8,5.1-8.6l2.2-3.4l9.7,13.4l5-5l5.4,3.7l6.7-38l9.3,37.8l8.7-23.1l7.3,20.1
			l6-12.5l6.3,11.4l11.8-43.1l7.8,41l4.7-12.4l7.4,16.9l4.5-3.6l10.2,0.3c10.1-24-6.6-46.7-27.9-48.1c-29.8-2.6-37.6,23-37.6,23v0.1
			c0,0-8.8-25.7-38.6-23.1C21.1,2.1,3.8,26.3,16.4,51.2L17.7,53.8z"/>
		<path class="st0" d="M139,53.9l-8.5,6.8l-4.8-11L119,67.8l-7.1-37.1L102.8,64l-7.7-14L88,64.6l-6.7-18.3l-9.7,25.8l-7.4-29.8
			l-3.6,20.9L52,57.3l-6.3,6.3l-8.6-11.9c-1.2,1.9-2.3,3.9-3.3,5.9l-0.6,2l-2,0.2h-9.7c7.7,11,24.5,30.7,60.5,49.4l0,0
			c40-22.6,58.1-47,63-55.2L139,53.9z"/>
	</g>
</g>
</svg>
