<svg xmlns="http://www.w3.org/2000/svg" viewBox="0 0 192.32 190.54"><defs><style>.cls-1{fill:#eecf6e;}.cls-2{fill:#3a2256;}</style></defs><title>how-can-we-sml-icon</title><g id="Layer_2" data-name="Layer 2"><g id="home_section_buttons" data-name="home section buttons"><path class="cls-1" d="M191.93,182h-.18a57.42,57.42,0,0,0-2.75-7.42v-.84c-2.62-7.81-5-15.68-7-23.71C170.06,99.69,167.58,50,168.35,0H0V183c63.48,11.11,127.59,8.81,192.32.05Z"/><path class="cls-2" d="M145.31,28.2l-.28-.34c-1.13,1.33-2.28,2.65-3.38,4s-2.09,2.69-3.14,4a25.53,25.53,0,0,0-1.76,2.28c-.58.95-1,2-1.49,3-.31.61-.62,1.22-1,1.8-.23.38-.54.71-.8,1.07a13.08,13.08,0,0,1-2.29,2.4c-.41.34-.85.66-1.23,1a11.7,11.7,0,0,0-1,1.19c-.74,1-1.51,1.92-2.19,2.93-.49.72-.85,1.53-1.28,2.29-.13.23-.3.44-.45.66a7.3,7.3,0,0,1-.21.79c-.44,1.13-.93,2.25-1.32,3.4a3.93,3.93,0,0,1-.85,1.73,1.54,1.54,0,0,0-.33.75,5,5,0,0,1-.53.93l-1,1.81c-.42.74-.81,1.49-1.26,2.2a7.92,7.92,0,0,1-.87,1c-.43.48-.85,1-1.31,1.43a25.87,25.87,0,0,1-2.63,2.22,7.7,7.7,0,0,1-2.32,1.52,6.48,6.48,0,0,1-1.56.31,13.21,13.21,0,0,1-1.79-.18c-.84-.09-1.7-.14-2.53-.29a21.63,21.63,0,0,1-2.25-.59c-.93-.27-1.84-.57-2.76-.86-.53-.17-1.06-.37-1.6-.51a10.5,10.5,0,0,1-3.48-1.6.7.7,0,0,1-.24-.43A1.83,1.83,0,0,1,98.27,66c.43.07.85.18,1.26.29l1.32.37A4.16,4.16,0,0,1,102,67a2.08,2.08,0,0,1,1,2.57c0,.09,0,.22.05.33.11-.05.29-.09.31-.17a2.51,2.51,0,0,0,.17-1,9.68,9.68,0,0,0-.46-1.45c.18,0,.42,0,.65.05.92.13,1.84.27,2.76.39a13.87,13.87,0,0,0,3.11-.05,1.44,1.44,0,0,1,1.32.74,9.34,9.34,0,0,1,.49,1c0-.15.14-.3.11-.42a1.79,1.79,0,0,0-1.31-1.57c1.25-1.11,2.7-1.8,3.77-3a.54.54,0,0,0-.37,0c-.26.15-.52.33-.77.5l-2,1.37a7.85,7.85,0,0,1-.8.59c-.26.14-.59.14-.86.26-.62.27-1.27.05-1.91.18a5.39,5.39,0,0,1-1.72-.15c-.34,0-.67-.17-1-.24-.62-.11-1.25-.2-1.88-.31l-.69-.15c-.57-.12-1.16-.2-1.72-.37A7.29,7.29,0,0,0,98,65.59,2,2,0,0,0,96,67a4.22,4.22,0,0,0-.2.81A1.26,1.26,0,0,0,96.26,69a5.91,5.91,0,0,0,2.48,1.3,3.27,3.27,0,0,1,.43.15c-.56.05-1.15.13-1.74.15a2.16,2.16,0,0,1-1-.13c-.67-.33-1.29-.76-2-1.17l.92-1.62c.07-.12.16-.23.22-.36.38-.83.76-1.66,1.13-2.5A20.24,20.24,0,0,0,98,61.93a7.82,7.82,0,0,0,.43-2.29c0-.47,0-.95,0-1.42,0-.18,0-.36,0-.54s-.19-.36-.15-.47c.16-.38-.17-.54-.25-.81a.32.32,0,0,1,.07-.28.68.68,0,0,1,.36-.08c.47,0,.95.05,1.42,0a13,13,0,0,0,1.76-.3,4.92,4.92,0,0,0,.87-.39l0-.12a1.71,1.71,0,0,0-.34,0c-.35.09-.7.2-1.05.28-.16,0-.34-.06-.49,0a6.49,6.49,0,0,1-2,.07,3.87,3.87,0,0,0-1.44.24,5.22,5.22,0,0,0-1.12.78c-.06,0-.07.15-.1.23s.16.1.23.09a.56.56,0,0,0,.25-.11L97.53,56c0,.29,0,.6-.13.71-.59.51-1.22,1-1.85,1.45-.42.32-.84.64-1.29.92-.77.47-1.54,1-2.35,1.35a2,2,0,0,1-2.2-.21,1.22,1.22,0,0,1-.45-1.11,4,4,0,0,1,.47-1.56,8.58,8.58,0,0,1,1.7-2.19c.88-.93,1.79-1.82,2.66-2.75s1.73-1.91,2.7-2.76a7.08,7.08,0,0,1,.71-.65,30.66,30.66,0,0,1,2.63-1.64c1.18-.61,2.4-1.14,3.62-1.66a19.5,19.5,0,0,1,2.14-.73c.56-.16,1.14-.26,1.71-.38,1.06-.23,2.13-.42,3.19-.69a10.61,10.61,0,0,0,2.3-.78,19.29,19.29,0,0,0,4.65-3.56c1.36-1.37,2.66-2.8,3.93-4.26,1.86-2.14,3.67-4.33,5.48-6.51.65-.78,1.26-1.59,1.9-2.38s1.51-1.86,2.26-2.8,1.45-1.86,2.18-2.79l1.06-1.34-.42-.22A37.72,37.72,0,0,0,121.3,16.3C91.95,13.78,83,38.91,83,38.91V39S75.69,13.78,46.34,16.3c-21.8,1.5-38.2,25.42-25.83,50a89.57,89.57,0,0,0,9.83,14.11c.09.11.31.23.41.34.14-.15.34-.29.49-.44a15.71,15.71,0,0,1,1.69-1.61c1.85-1.42,3.75-2.77,5.62-4.16,1.4-1,2.72-2.18,4-3.36,2.44-2.23,4.74-4.6,7-7,1.31-1.37,2.7-2.67,4.08-4q2.41-2.25,4.88-4.42c1-.86,2-1.66,3.05-2.44.61-.45,1.3-.77,1.94-1.17,1.15-.74,2.28-1.52,3.44-2.25s2.55-1.54,3.82-2.32a1.23,1.23,0,0,1,1-.1c.84.21,1.12.66,1,1.37a2.89,2.89,0,0,1-.93,1.64c-.76.67-1.53,1.33-2.33,2-1.35,1-2.73,2-4.09,3.06a8.32,8.32,0,0,0-1.06,1c-.36.39-.66.84-1,1.23-.78.89-1.56,1.8-2.39,2.64a24.39,24.39,0,0,1-2.17,1.9,2.49,2.49,0,0,1-1.74.53,10.76,10.76,0,0,0-1.49.05c-.1,0-.19.15-.29.22a1.49,1.49,0,0,0,.33.11c.16,0,.32,0,.48,0,.48,0,1,.05,1.42,0A4.15,4.15,0,0,0,60,61.87c1.14-1.1,2.28-2.22,3.31-3.42a22.94,22.94,0,0,1,4.34-4.06c1.35-.93,2.63-2,3.91-3,.5-.4.85-1,1.34-1.4a24.43,24.43,0,0,1,2-1.58l0,0,.23-.12.35-.27,2.25-1.5a5.4,5.4,0,0,1,2.3-.94,1,1,0,0,1,.62.18l.57.49a.84.84,0,0,1,.2.44,2.35,2.35,0,0,1-1,2.07c-.52.4-1,.81-1.56,1.2A21.48,21.48,0,0,1,77,51.31a19.92,19.92,0,0,0-4,3c-1,1-1.93,2-2.87,3s-1.75,1.85-2.59,2.8a4.13,4.13,0,0,1-2.07,1.48,15.85,15.85,0,0,1-1.89.27c-.29,0-.59,0-.88,0s-.33.12-.2.43c1-.09,1.92-.16,2.88-.27a1.34,1.34,0,0,1,.95.16,1.17,1.17,0,0,0,1.44-.11c.79-.62,1.55-1.27,2.32-1.9a13.18,13.18,0,0,1,1.63-1.27c.94-.54,1.94-1,2.92-1.46,1.27-.63,2.55-1.26,3.81-1.91s2.42-1.26,3.62-1.91a2.06,2.06,0,0,1,1.53-.23,1.81,1.81,0,0,1,1.05,1.67,2,2,0,0,1-1,1.46c-.61.33-1.21.7-1.82,1a50.86,50.86,0,0,1-5.5,2.8,12.09,12.09,0,0,0-2.43,1.33c-1.25.9-2.43,1.9-3.63,2.86a.38.38,0,0,0-.14.28c0,.17.64.64,1,.82l0,0h0a.46.46,0,0,0,.19.06c.06,0,.12-.07.17-.1.67-.42,1.33-.86,2-1.26a11.08,11.08,0,0,1,3.32-.93c1.46-.33,2.94-.58,4.41-.87l.43-.08.79-.11a3.75,3.75,0,0,1,.7,0l.78.33a.92.92,0,0,1,.22.49,1.08,1.08,0,0,1,0,.21,1.48,1.48,0,0,1-.45,1.18,4.41,4.41,0,0,1-1.86.75c-1,.24-1.95.43-2.91.68-.71.18-1.4.44-2.1.65a12.42,12.42,0,0,0-2.82,1.06,4.5,4.5,0,0,0-1.6,1.4,6.48,6.48,0,0,1-1.18,1.39,13.14,13.14,0,0,1-3.39,2c-.36.15-.72.28-1.14.44a4.68,4.68,0,0,0-.05-.54.25.25,0,0,0-.14-.17.2.2,0,0,0-.17.12c0,.18,0,.37,0,.55s0,.31-.08.38A15.5,15.5,0,0,1,65,74.54c-1,.8-2,1.53-3,2.36a64.68,64.68,0,0,1-5.24,4l-3.38,2.34c-1.07.74-2.11,1.53-3.22,2.21a11.86,11.86,0,0,1-3.14.84l.41-.57c.39-.56.8-1.1,1.16-1.67.6-.95,1.16-1.91,1.74-2.87a17.27,17.27,0,0,0,2.47-5.08A8,8,0,0,0,53,74.89a.64.64,0,0,1,.4-.61c1.16-.62,2.34-1.22,3.45-1.94a6.27,6.27,0,0,0,2.35-2.5,2.23,2.23,0,0,0-3.38-2.79q-.27.26-.56.51a2.4,2.4,0,0,1-1.08.7l-1.08.2a2,2,0,0,0-1.23.7,6.07,6.07,0,0,1-4,2.13c-.94.15-1.9.21-2.85.31a1.32,1.32,0,0,0-.88.4c0,.05,0,.16-.06.25a.64.64,0,0,0,.21,0c.54-.1,1.08-.23,1.62-.32.85-.15,1.71-.27,2.56-.41a5.58,5.58,0,0,0,3.31-1.75,3.17,3.17,0,0,1,1.77-1.05,2.24,2.24,0,0,0,.73-.17,10,10,0,0,0,1.92-1.24A1.63,1.63,0,0,1,58,67.08a1.79,1.79,0,0,1,1,2.45,5.69,5.69,0,0,1-2.42,2.65c-1.19.71-2.46,1.27-3.71,1.87a.6.6,0,0,0-.39.65,4.31,4.31,0,0,1,0,1,10.85,10.85,0,0,1-1.31,3.39c-.15.26-.34.49-.49.75-.53.89-1.06,1.79-1.59,2.68-.43.71-.86,1.42-1.31,2.12a4,4,0,0,1-.68.9,7.66,7.66,0,0,1-2.33,1.51,6.49,6.49,0,0,1-3.74.47,2.67,2.67,0,0,1-1.7-1A8.14,8.14,0,0,1,38,83.2a4.72,4.72,0,0,1,0-1.57,17.84,17.84,0,0,1,.61-2,.75.75,0,0,0,0-.27c-.08,0-.18,0-.23.1a3.41,3.41,0,0,0-.68,1.83,12,12,0,0,0,0,2.14,2.91,2.91,0,0,0,.19.89c.22.56.49,1.1.73,1.65a3.41,3.41,0,0,0,2.26,2,4.89,4.89,0,0,0,2.95-.16,5.23,5.23,0,0,1,.69-.15.42.42,0,0,1-.14.21c-.66.64-1.34,1.24-2,1.91s-1,1.1-1.49,1.66l.29.28c9.88,9.6,24.07,20.8,44,31.55h0c49.29-27.12,63.84-57.07,63.84-57.07C156.19,51.9,153.3,37.77,145.31,28.2ZM47.83,65.43l.43-.47.38-.35Zm26.52-1.76.1-.07.41-.06ZM89.44,79.53c-.85.1-1.69.34-2.54.44a6.67,6.67,0,0,1-1.8-.05.69.69,0,0,1-.34-1.26,3.07,3.07,0,0,1,.86-.56,4,4,0,0,1,2.2-.64c.49.09,1,.26,1.46.36.73.14,1.46.25,2.19.36.2,0,.4,0,.72.06A5.55,5.55,0,0,1,89.44,79.53Zm8.38-2c-1.27,0-2.53.15-3.8.16a22.93,22.93,0,0,1-3.48-.13,30.2,30.2,0,0,1-3.26-.83c-.33-.09-.67-.16-1-.23A6.29,6.29,0,0,1,83.34,75a1.23,1.23,0,0,1,.54-2.19,7.76,7.76,0,0,1,1.95,0,18.53,18.53,0,0,1,4.52,1.07,1.81,1.81,0,0,1,1.39,1.42c0,.15,0,.31,0,.49.44.09.47.07.37-.36s-.2-.76-.29-1.12l1.66-.46a3.09,3.09,0,0,1,1.76.27c1.13.35,2.24.77,3.37,1.07.89.24,1.82.35,2.73.52l.45.12A6.45,6.45,0,0,1,97.82,77.58Zm-6.36-3.79c.29-.27.49-.48.72-.65a.4.4,0,0,1,.33,0c.26.1.52.24.85.41A4.66,4.66,0,0,1,91.46,73.79Zm16.49.07c-1,.55-2,1.12-3,1.59a3.23,3.23,0,0,1-2.31.19c-1.21-.35-2.44-.61-3.67-.88a22.3,22.3,0,0,1-4-1.27c-.56-.24-1.17-.36-1.71-.62a25,25,0,0,1-2.39-1.34,1.26,1.26,0,0,1-.5-1.1,1.13,1.13,0,0,1,1.26-1.05,10.62,10.62,0,0,1,1.76.2,5.42,5.42,0,0,1,2.35,1.09,3,3,0,0,1,1.14,1.26,4.39,4.39,0,0,1,.11.54c0,.15.08.3.14.5.47-.48.42-.82-.21-1.82.22,0,.41-.08.6-.1a19.76,19.76,0,0,1,4.14.18,1.52,1.52,0,0,1,1.45,1.34c0,.09.12.16.18.25,0-.1.15-.2.14-.29a6.88,6.88,0,0,0-.14-.77c2,.85,4,.8,6,1.25C108.86,73.3,108.42,73.6,107.95,73.86Z"/><path class="cls-2" d="M29.17,145H25.77v-5.94h-5V145H17.29V130.78h3.43v5.64h5v-5.64h3.41Z"/><path class="cls-2" d="M44.38,138.18a8.39,8.39,0,0,1-.77,3.68,5.7,5.7,0,0,1-2.19,2.47,6.1,6.1,0,0,1-3.24.86,6.19,6.19,0,0,1-3.22-.83A5.69,5.69,0,0,1,32.77,142a8.14,8.14,0,0,1-.83-3.56v-.8a8.42,8.42,0,0,1,.77-3.69,5.69,5.69,0,0,1,2.2-2.47,6.5,6.5,0,0,1,6.48,0,5.79,5.79,0,0,1,2.2,2.45,8.18,8.18,0,0,1,.8,3.64Zm-3.49-.6a6,6,0,0,0-.71-3.22,2.27,2.27,0,0,0-2-1.1q-2.58,0-2.72,3.87v1a6.15,6.15,0,0,0,.69,3.21,2.27,2.27,0,0,0,2.06,1.12,2.24,2.24,0,0,0,2-1.1,6,6,0,0,0,.71-3.17Z"/><path class="cls-2" d="M58.17,139.7l1.63-8.92h3.4l-3,14.22H56.62l-1.9-8.11L52.85,145H49.31l-3-14.22h3.41l1.63,8.92,2-8.92h2.91Z"/><path class="cls-2" d="M83,140.19a5.19,5.19,0,0,1-.8,2.62,4.83,4.83,0,0,1-2.06,1.76,7,7,0,0,1-3,.63,5.58,5.58,0,0,1-4.41-1.83,7.54,7.54,0,0,1-1.61-5.16v-.7a8.61,8.61,0,0,1,.73-3.66,5.51,5.51,0,0,1,2.09-2.42,5.84,5.84,0,0,1,3.16-.85,6.13,6.13,0,0,1,4.16,1.36A5.38,5.38,0,0,1,83,135.69H79.63a2.55,2.55,0,0,0-.65-1.87,2.69,2.69,0,0,0-1.87-.57,2,2,0,0,0-1.87,1,6.15,6.15,0,0,0-.62,3.06v1a6.81,6.81,0,0,0,.57,3.25,2.09,2.09,0,0,0,2,1,2.63,2.63,0,0,0,1.81-.56,2.36,2.36,0,0,0,.66-1.77Z"/><path class="cls-2" d="M93.71,142.34H89L88.2,145H84.54l5.21-14.22H93L98.23,145H94.54Zm-3.88-2.65h3.06l-1.53-4.93Z"/><path class="cls-2" d="M112.14,145h-3.41l-5-8.85V145h-3.43V130.78h3.43l5,8.85v-8.85h3.42Z"/><path class="cls-2" d="M132.3,139.7l1.63-8.92h3.4l-3,14.22h-3.55l-1.9-8.11L127,145h-3.54l-3-14.22h3.41l1.63,8.92,2-8.92h2.91Z"/><path class="cls-2" d="M148.49,139H143.1v3.4h6.37V145h-9.79V130.78h9.81v2.65H143.1v3h5.39Z"/><path class="cls-2" d="M45.73,169H42.32v-5.94h-5V169H33.85V154.78h3.43v5.64h5v-5.64h3.41Z"/><path class="cls-2" d="M57.72,163H52.33v3.4h6.37V169H48.9V154.78h9.81v2.65H52.33v3h5.39Z"/><path class="cls-2" d="M64.52,166.36h6V169H61.09V154.78h3.43Z"/><path class="cls-2" d="M76.36,164.18V169H72.93V154.78H78.6a6.61,6.61,0,0,1,2.89.6,4.53,4.53,0,0,1,1.94,1.71,4.67,4.67,0,0,1,.69,2.51,4.11,4.11,0,0,1-1.49,3.33,6.18,6.18,0,0,1-4.09,1.25Zm0-2.65H78.6a2.12,2.12,0,0,0,1.52-.5,1.85,1.85,0,0,0,.52-1.41,2.29,2.29,0,0,0-.54-1.59,1.9,1.9,0,0,0-1.46-.61H76.36Z"/><path class="cls-2" d="M98.13,161l2.62-6.17h3.7l-4.58,9.11V169H96.39v-5.11l-4.57-9.11h3.68Z"/><path class="cls-2" d="M118.24,162.18a8.39,8.39,0,0,1-.77,3.68,5.7,5.7,0,0,1-2.19,2.47,6.1,6.1,0,0,1-3.24.86,6.19,6.19,0,0,1-3.22-.83,5.69,5.69,0,0,1-2.19-2.39,8.14,8.14,0,0,1-.83-3.56v-.8a8.42,8.42,0,0,1,.77-3.69,5.69,5.69,0,0,1,2.2-2.47,6.5,6.5,0,0,1,6.48,0,5.79,5.79,0,0,1,2.2,2.45,8.18,8.18,0,0,1,.8,3.64Zm-3.49-.6a6,6,0,0,0-.71-3.22,2.27,2.27,0,0,0-2-1.1q-2.58,0-2.72,3.87v1a6.15,6.15,0,0,0,.69,3.21,2.27,2.27,0,0,0,2.06,1.12,2.24,2.24,0,0,0,2-1.1,6,6,0,0,0,.71-3.17Z"/><path class="cls-2" d="M132.16,154.78v9.31a5.35,5.35,0,0,1-.67,2.74,4.37,4.37,0,0,1-1.93,1.76,6.81,6.81,0,0,1-3,.61,5.88,5.88,0,0,1-4.09-1.35,4.81,4.81,0,0,1-1.52-3.69v-9.37h3.45v9.44q.06,2.33,2.17,2.33a2.1,2.1,0,0,0,1.61-.59,2.74,2.74,0,0,0,.55-1.9v-9.29Z"/></g></g></svg>