<?xml version="1.0" encoding="utf-8"?>
<!-- Generator: Adobe Illustrator 20.0.0, SVG Export Plug-In . SVG Version: 6.00 Build 0)  -->
<svg version="1.1" id="Layer_1" xmlns="http://www.w3.org/2000/svg" xmlns:xlink="http://www.w3.org/1999/xlink" x="0px" y="0px"
	 viewBox="0 0 138 154.8" style="enable-background:new 0 0 138 154.8;" xml:space="preserve">
<style type="text/css">
	.st0{fill:#8D252A;}
</style>
<title>how-heading-sml-icon</title>
<g id="Layer_2">
	<g id="section_head_icons">
		<path class="st0" d="M129.5,12.6l-0.3-0.3c-1.1,1.3-2.3,2.6-3.4,4s-2.1,2.7-3.1,4c-0.6,0.7-1.2,1.5-1.8,2.3c-0.6,1-1,2-1.5,3
			c-0.3,0.6-0.6,1.2-1,1.8c-0.2,0.4-0.5,0.7-0.8,1.1c-0.7,0.9-1.4,1.7-2.3,2.4c-0.4,0.3-0.8,0.7-1.2,1c-0.4,0.4-0.7,0.8-1,1.2
			c-0.7,1-1.5,1.9-2.2,2.9c-0.5,0.7-0.8,1.5-1.3,2.3c-0.1,0.2-0.3,0.4-0.4,0.7s-0.1,0.5-0.2,0.8c-0.4,1.1-0.9,2.2-1.3,3.4
			c-0.1,0.6-0.4,1.2-0.8,1.7c-0.2,0.2-0.3,0.5-0.3,0.8c-0.1,0.3-0.3,0.6-0.5,0.9l-1,1.8c-0.4,0.7-0.8,1.5-1.3,2.2
			c-0.3,0.4-0.6,0.7-0.9,1c-0.4,0.5-0.8,1-1.3,1.4c-0.8,0.8-1.7,1.5-2.6,2.2c-0.7,0.6-1.5,1.2-2.3,1.5c-0.5,0.2-1,0.3-1.6,0.3
			s-1.2-0.1-1.8-0.2c-0.8-0.1-1.7-0.1-2.5-0.3c-0.8-0.1-1.5-0.3-2.3-0.5c-0.9-0.3-1.8-0.6-2.8-0.9c-0.5-0.2-1.1-0.4-1.6-0.5
			c-1.2-0.3-2.4-0.9-3.5-1.6c-0.1-0.1-0.2-0.3-0.2-0.4c-0.2-1,0.5-2,1.4-2.1c0.2,0,0.4,0,0.6,0c0.4,0.1,0.8,0.2,1.3,0.3l1.3,0.4
			c0.4,0,0.8,0.1,1.2,0.3c0.9,0.5,1.4,1.6,1,2.6c0,0.1,0,0.2,0.1,0.3c0.1,0,0.3-0.1,0.3-0.2c0.1-0.3,0.2-0.7,0.2-1
			c-0.1-0.5-0.3-1-0.5-1.5c0.2,0,0.4,0,0.7,0c0.9,0.1,1.8,0.3,2.8,0.4c1,0.1,2.1,0.1,3.1,0c0.5,0,1.1,0.3,1.3,0.7
			c0.2,0.3,0.3,0.7,0.5,1c0-0.2,0.1-0.3,0.1-0.4c-0.1-0.7-0.6-1.3-1.2-1.6c1.2-1.1,2.7-1.8,3.8-3c-0.1,0-0.3,0-0.4,0
			c-0.3,0.2-0.5,0.3-0.8,0.5l-2,1.4c-0.3,0.2-0.5,0.4-0.8,0.6c-0.3,0.1-0.6,0.1-0.9,0.3c-0.6,0.3-1.3,0-1.9,0.2
			c-0.6,0-1.2,0-1.7-0.2c-0.3,0-0.7-0.2-1-0.2c-0.6-0.1-1.2-0.2-1.9-0.3l-0.7-0.2c-0.6-0.1-1.2-0.2-1.7-0.4C83.8,50.2,83,50,82.3,50
			c-0.9,0-1.7,0.5-2,1.4c-0.1,0.3-0.2,0.5-0.2,0.8c-0.1,0.5,0,0.9,0.4,1.3c0.7,0.6,1.6,1.1,2.5,1.3c0.1,0,0.3,0.1,0.4,0.2
			c-0.6,0-1.2,0.1-1.7,0.2c-0.3,0-0.7,0-1-0.1c-0.7-0.3-1.3-0.8-2-1.2l0.9-1.6c0.1-0.1,0.2-0.2,0.2-0.4c0.4-0.8,0.8-1.7,1.1-2.5
			c0.5-0.9,0.9-1.9,1.2-2.9c0.3-0.7,0.4-1.5,0.4-2.3c0-0.5,0-1,0-1.4c0-0.2,0-0.4,0-0.5s-0.2-0.4-0.2-0.5c0.2-0.4-0.2-0.5-0.2-0.8
			c0-0.1,0-0.2,0.1-0.3s0.2-0.1,0.4-0.1c0.5,0,0.9,0,1.4,0c0.6-0.1,1.2-0.2,1.8-0.3c0.3-0.1,0.6-0.2,0.9-0.4v-0.1
			c-0.1,0-0.2,0-0.3,0c-0.3,0.1-0.7,0.2-1.1,0.3c-0.2,0-0.3-0.1-0.5,0c-0.7,0.1-1.3,0.2-2,0.1c-0.5,0-1,0.1-1.4,0.2
			c-0.4,0.2-0.8,0.5-1.1,0.8c-0.1,0-0.1,0.2-0.1,0.2l0.2,0.1c0.1,0,0.2-0.1,0.2-0.1l1.2-0.8c0,0.3,0,0.6-0.1,0.7
			c-0.6,0.5-1.2,1-1.8,1.5c-0.4,0.3-0.8,0.6-1.3,0.9c-0.8,0.5-1.5,1-2.3,1.3c-0.7,0.4-1.6,0.3-2.2-0.2c-0.4-0.2-0.6-0.7-0.5-1.1
			c0-0.5,0.2-1.1,0.5-1.6c0.4-0.8,1-1.6,1.7-2.2c0.9-0.9,1.8-1.8,2.7-2.8s1.7-1.9,2.7-2.8c0.2-0.2,0.5-0.4,0.7-0.7
			c0.8-0.6,1.7-1.1,2.6-1.6c1.2-0.6,2.4-1.1,3.6-1.7c0.7-0.3,1.4-0.6,2.2-0.8c0.6-0.2,1.1-0.3,1.7-0.4c1.1-0.2,2.1-0.4,3.2-0.7
			c0.8-0.2,1.6-0.4,2.3-0.8c1.7-0.9,3.3-2.1,4.7-3.6c1.4-1.4,2.7-2.8,3.9-4.3c1.9-2.1,3.7-4.3,5.5-6.5c0.7-0.8,1.3-1.6,1.9-2.4
			s1.5-1.9,2.3-2.8s1.4-1.9,2.2-2.8l1.1-1.3l-0.4-0.2c-4.1-1.8-8.5-2.8-12.9-3.1C76.1-1.8,67.2,23.4,67.2,23.4v0.1
			c0,0-7.3-25.2-36.6-22.7C8.7,2.3-7.7,26.2,4.7,50.7c2.8,5,6.1,9.7,9.8,14.1c0.1,0.1,0.3,0.2,0.4,0.3c0.1-0.2,0.4-0.3,0.5-0.4
			c0.5-0.6,1.1-1.1,1.7-1.6c1.9-1.4,3.8-2.8,5.6-4.2c1.4-1,2.7-2.2,4-3.4c2.4-2.2,4.7-4.6,7-7c1.3-1.4,2.7-2.7,4.1-4
			c1.6-1.5,3.2-3,4.9-4.4c1-0.9,2-1.7,3-2.4c0.6-0.5,1.3-0.8,1.9-1.2c1.2-0.7,2.3-1.5,3.4-2.2s2.5-1.5,3.8-2.3
			c0.3-0.2,0.7-0.2,1-0.1c0.8,0.2,1.1,0.7,1,1.4c-0.1,0.6-0.4,1.2-0.9,1.6c-0.8,0.7-1.5,1.3-2.3,2c-1.3,1-2.7,2-4.1,3.1
			c-0.4,0.3-0.7,0.6-1.1,1c-0.4,0.4-0.7,0.8-1,1.2c-0.8,0.9-1.6,1.8-2.4,2.6c-0.7,0.7-1.4,1.3-2.2,1.9c-0.5,0.4-1.1,0.6-1.7,0.5
			c-0.5,0-1,0-1.5,0c-0.1,0-0.2,0.2-0.3,0.2c0.1,0,0.2,0.1,0.3,0.1c0.2,0,0.3,0,0.5,0c0.5,0,1,0,1.4,0c0.9-0.1,1.8-0.6,2.5-1.3
			c1.1-1.1,2.3-2.2,3.3-3.4c1.3-1.5,2.7-2.9,4.3-4.1c1.3-0.9,2.6-2,3.9-3c0.5-0.4,0.8-1,1.3-1.4c0.6-0.6,1.3-1.1,2-1.6l0,0l0.2-0.1
			l0.3-0.3l2.2-1.5c0.7-0.5,1.5-0.8,2.3-0.9c0.2,0,0.4,0.1,0.6,0.2l0.6,0.5c0.1,0.1,0.2,0.3,0.2,0.4c0,0.8-0.3,1.6-1,2.1
			c-0.5,0.4-1,0.8-1.6,1.2c-0.6,0.5-1.3,1-1.9,1.4c-1.5,0.8-2.8,1.8-4,3c-1,1-1.9,2-2.9,3s-1.6,1.7-2.5,2.7
			c-0.5,0.7-1.2,1.2-2.1,1.5c-0.6,0.1-1.3,0.2-1.9,0.3c-0.3,0-0.6,0-0.9,0s-0.3,0.1-0.2,0.4c1-0.1,1.9-0.2,2.9-0.3
			c0.3-0.1,0.7,0,1,0.2c0.4,0.3,1,0.3,1.4-0.1c0.8-0.6,1.5-1.3,2.3-1.9c0.5-0.5,1.1-0.9,1.6-1.3c0.9-0.5,1.9-1,2.9-1.5
			c1.3-0.6,2.5-1.3,3.8-1.9s2.4-1.3,3.6-1.9c0.5-0.3,1-0.4,1.5-0.2c0.7,0.3,1.1,1,1.1,1.7c-0.1,0.6-0.5,1.2-1,1.5
			c-0.6,0.3-1.2,0.7-1.8,1c-1.8,1-3.6,2-5.5,2.8c-0.9,0.3-1.7,0.8-2.4,1.3c-1.2,0.9-2.4,1.9-3.6,2.9c-0.1,0.1-0.1,0.2-0.1,0.3
			c0,0.2,0.6,0.6,1,0.8l0,0l0,0c0.1,0,0.1,0.1,0.2,0.1c0.1,0,0.1-0.1,0.2-0.1c0.7-0.4,1.3-0.9,2-1.3c1.1-0.5,2.2-0.8,3.3-0.9
			c1.5-0.3,2.9-0.6,4.4-0.9l0.4-0.1l0.8-0.1c0.2,0,0.5,0,0.7,0l0.8,0.3c0.1,0.1,0.2,0.3,0.2,0.5c0,0.1,0,0.1,0,0.2
			c0,0.4-0.1,0.9-0.4,1.2c-0.6,0.4-1.2,0.6-1.9,0.8c-1,0.2-1.9,0.4-2.9,0.7c-0.7,0.2-1.4,0.4-2.1,0.7c-1,0.2-1.9,0.6-2.8,1.1
			c-0.6,0.3-1.2,0.8-1.6,1.4c-0.3,0.5-0.7,1-1.2,1.4c-1,0.8-2.2,1.5-3.4,2c-0.4,0.2-0.7,0.3-1.1,0.4c0-0.2,0-0.4,0-0.5
			s-0.1-0.1-0.1-0.2c-0.1,0-0.1,0.1-0.2,0.1c0,0.2,0,0.4,0,0.5s0,0.3-0.1,0.4c-0.4,0.4-0.8,0.8-1.3,1.2c-1,0.8-2,1.5-3,2.4
			c-1.7,1.4-3.4,2.8-5.2,4l-3.4,2.4c-1.1,0.7-2.1,1.5-3.2,2.2c-1,0.4-2.1,0.7-3.1,0.8l0.4-0.6c0.4-0.6,0.8-1.1,1.2-1.7
			c0.6-0.9,1.2-1.9,1.8-2.9c1.1-1.5,1.9-3.2,2.5-5c0.1-0.4,0.2-0.8,0.2-1.2c0-0.3,0.2-0.5,0.4-0.6c1.2-0.6,2.3-1.2,3.5-1.9
			c1-0.6,1.8-1.5,2.3-2.5c0.6-1.1,0.2-2.4-0.9-3c-0.8-0.4-1.8-0.3-2.5,0.2c-0.2,0.2-0.4,0.3-0.6,0.5c-0.3,0.3-0.7,0.6-1.1,0.7
			L37,52.9c-0.5,0.1-0.9,0.3-1.2,0.7c-1,1.2-2.4,2-4,2.1c-0.9,0.2-1.9,0.2-2.8,0.3c-0.3,0-0.6,0.2-0.9,0.4c0,0,0,0.2-0.1,0.2
			c0.1,0,0.1,0,0.2,0c0.5-0.1,1.1-0.2,1.6-0.3c0.9-0.2,1.7-0.3,2.6-0.4c1.3-0.2,2.4-0.8,3.3-1.8c0.5-0.5,1.1-0.9,1.8-1
			c0.3,0,0.5-0.1,0.7-0.2c0.7-0.3,1.3-0.7,1.9-1.2c0.5-0.4,1.2-0.5,1.7-0.2c0.9,0.3,1.4,1.4,1.1,2.3c0,0.1,0,0.1-0.1,0.2
			c-0.5,1.1-1.3,2.1-2.4,2.7c-1.2,0.7-2.5,1.3-3.7,1.9c-0.3,0.1-0.4,0.4-0.4,0.7s0,0.7,0,1c-0.3,1.2-0.7,2.3-1.3,3.4
			c-0.2,0.3-0.3,0.5-0.5,0.8c-0.5,0.9-1.1,1.8-1.6,2.7c-0.4,0.7-0.9,1.4-1.3,2.1c-0.2,0.3-0.4,0.6-0.7,0.9c-0.7,0.7-1.5,1.2-2.3,1.5
			c-1.2,0.5-2.5,0.7-3.7,0.5c-0.7-0.1-1.3-0.5-1.7-1c-0.7-1-1.1-2.1-1.3-3.3c-0.1-0.5-0.1-1.1,0-1.6c0.2-0.7,0.4-1.3,0.6-2
			c0-0.1,0-0.2,0-0.3c-0.1,0-0.2,0-0.2,0.1c-0.4,0.5-0.6,1.2-0.7,1.8c-0.1,0.7-0.1,1.4,0,2.1c0,0.3,0.1,0.6,0.2,0.9
			c0.2,0.6,0.5,1.1,0.7,1.7c0.4,1,1.2,1.7,2.3,2c1,0.3,2,0.2,3-0.2c0.2-0.1,0.5-0.1,0.7-0.2c0,0.1-0.1,0.2-0.1,0.2
			c-0.7,0.6-1.3,1.2-2,1.9s-1,1.1-1.5,1.7l0.3,0.3c9.9,9.6,24.1,20.8,44,31.5l0,0C118.5,80.7,133,50.7,133,50.7
			C140.5,36.4,137.5,22.2,129.5,12.6z M32.1,49.9l0.4-0.5l0.4-0.3L32.1,49.9z M58.6,48.1L58.6,48.1l0.5-0.1L58.6,48.1z M73.7,64
			c-0.8,0.1-1.7,0.3-2.5,0.4c-0.6,0.1-1.2,0-1.8-0.1c-0.4,0-0.7-0.4-0.6-0.7c0-0.2,0.1-0.4,0.3-0.5c0.3-0.2,0.5-0.4,0.9-0.6
			c0.7-0.4,1.4-0.6,2.2-0.6c0.5,0.1,1,0.3,1.5,0.4c0.7,0.1,1.5,0.2,2.2,0.4c0.2,0,0.4,0,0.7,0.1C75.6,63.4,74.7,63.8,73.7,64z
			 M82,62c-1.3,0-2.5,0.2-3.8,0.2c-1.2,0-2.3,0-3.5-0.1c-1.1-0.2-2.2-0.5-3.3-0.8c-0.3-0.1-0.7-0.2-1-0.2c-1.1-0.2-2.1-0.8-2.9-1.6
			c-0.5-0.4-0.6-1.2-0.2-1.7c0.2-0.2,0.5-0.4,0.8-0.5c0.6-0.1,1.3-0.1,1.9,0c1.5,0.2,3.1,0.5,4.5,1.1c0.7,0.2,1.3,0.7,1.4,1.4
			c0,0.2,0,0.3,0,0.5c0.4,0.1,0.5,0.1,0.4-0.4s-0.2-0.8-0.3-1.1l1.7-0.5c0.6-0.1,1.2,0,1.8,0.3c1.1,0.3,2.2,0.8,3.4,1.1
			c0.9,0.2,1.8,0.3,2.7,0.5l0.4,0.1C84.9,61.3,83.5,61.9,82,62L82,62z M75.7,58.2c0.3-0.3,0.5-0.5,0.7-0.7c0.1,0,0.2,0,0.3,0
			c0.3,0.1,0.5,0.2,0.8,0.4C77,58.2,76.3,58.3,75.7,58.2L75.7,58.2z M92.2,58.3c-1,0.5-2,1.1-3,1.6c-0.7,0.3-1.5,0.4-2.3,0.2
			c-1.2-0.3-2.4-0.6-3.7-0.9c-1.4-0.3-2.7-0.7-4-1.3c-0.6-0.2-1.2-0.4-1.7-0.6c-0.8-0.4-1.6-0.8-2.4-1.3c-0.3-0.3-0.5-0.7-0.5-1.1
			c0-0.6,0.6-1.1,1.2-1.1c0,0,0,0,0.1,0c0.6,0,1.2,0.1,1.8,0.2c0.9,0.2,1.7,0.5,2.3,1.1c0.5,0.3,0.9,0.7,1.1,1.3
			c0,0.2,0.1,0.4,0.1,0.5c0,0.2,0.1,0.3,0.1,0.5c0.5-0.5,0.4-0.8-0.2-1.8c0.2,0,0.4-0.1,0.6-0.1c1.4-0.1,2.8,0,4.1,0.2
			c0.7,0,1.4,0.6,1.4,1.3c0,0.1,0.1,0.2,0.2,0.2c0-0.1,0.2-0.2,0.1-0.3c0-0.3-0.1-0.5-0.1-0.8c2,0.8,4,0.8,6,1.2
			C93.1,57.8,92.6,58.1,92.2,58.3L92.2,58.3z"/>
		<path class="st0" d="M15.3,130.3h-3.4v-5.9h-5v5.9H3.5v-14.2h3.4v5.6h5v-5.6h3.4L15.3,130.3z"/>
		<path class="st0" d="M30.6,123.5c0,1.3-0.2,2.5-0.8,3.7c-0.5,1-1.2,1.9-2.2,2.5s-2.1,0.9-3.2,0.9s-2.2-0.3-3.2-0.8
			c-0.9-0.6-1.7-1.4-2.2-2.4c-0.5-1.1-0.8-2.3-0.8-3.6V123c0-1.3,0.2-2.5,0.8-3.7c0.5-1,1.2-1.9,2.2-2.5c2-1.2,4.5-1.2,6.5,0
			c1,0.6,1.7,1.4,2.2,2.4c0.5,1.1,0.8,2.4,0.8,3.6L30.6,123.5z M27.1,122.9c0.1-1.1-0.2-2.2-0.7-3.2c-0.4-0.7-1.2-1.1-2-1.1
			c-1.7,0-2.6,1.3-2.7,3.9v1c-0.1,1.1,0.2,2.2,0.7,3.2c0.4,0.7,1.2,1.2,2.1,1.1c0.8,0,1.6-0.4,2-1.1c0.5-1,0.8-2.1,0.7-3.2
			L27.1,122.9z"/>
		<path class="st0" d="M44.3,125l1.6-8.9h3.4l-3,14.2h-3.6l-1.9-8.1l-1.9,8.1h-3.6l-3-14.2h3.4l1.6,8.9l2-8.9h2.9L44.3,125z"/>
		<path class="st0" d="M69.2,125.5c0,0.9-0.3,1.8-0.8,2.6s-1.2,1.4-2.1,1.8c-0.9,0.4-2,0.6-3,0.6c-1.7,0.1-3.3-0.6-4.4-1.8
			c-1.2-1.5-1.7-3.3-1.6-5.2v-0.7c0-1.3,0.2-2.5,0.7-3.7c0.4-1,1.2-1.8,2.1-2.4c1-0.6,2-0.9,3.2-0.8c1.5-0.1,3,0.4,4.2,1.4
			c1.1,1,1.7,2.3,1.8,3.8h-3.5c0-0.7-0.2-1.4-0.7-1.9c-0.5-0.4-1.2-0.6-1.9-0.6c-0.8-0.1-1.5,0.3-1.9,1c-0.5,0.9-0.7,2-0.6,3.1v1
			c-0.1,1.1,0.1,2.2,0.6,3.2c0.4,0.7,1.2,1.1,2,1c0.7,0,1.3-0.2,1.8-0.6c0.5-0.5,0.7-1.1,0.7-1.8L69.2,125.5z"/>
		<path class="st0" d="M79.9,127.7h-4.7l-0.8,2.7h-3.7l5.2-14.2h3.2l5.2,14.2h-3.7L79.9,127.7z M76,125h3.1l-1.5-4.9L76,125z"/>
		<path class="st0" d="M98.3,130.3h-3.4l-5-8.8v8.8h-3.4v-14.2h3.4l5,8.8v-8.8h3.4V130.3z"/>
		<path class="st0" d="M118.5,125l1.6-8.9h3.4l-3,14.2h-3.6l-1.9-8.1l-1.9,8.1h-3.5l-3-14.2h3.4l1.6,8.9l2-8.9h2.8L118.5,125z"/>
		<path class="st0" d="M134.7,124.3h-5.4v3.4h6.4v2.6h-9.8v-14.2h9.8v2.7h-6.4v3h5.4V124.3z"/>
		<path class="st0" d="M31.9,154.3h-3.5v-5.9h-5v5.9H20v-14.2h3.4v5.6h5v-5.6h3.4L31.9,154.3z"/>
		<path class="st0" d="M43.9,148.3h-5.4v3.4h6.4v2.6h-9.8v-14.2h9.8v2.6h-6.4v3h5.4V148.3z"/>
		<path class="st0" d="M50.7,151.7h6v2.6h-9.4v-14.2h3.4C50.7,140.1,50.7,151.7,50.7,151.7z"/>
		<path class="st0" d="M62.5,149.5v4.8h-3.4v-14.2h5.7c1,0,2,0.2,2.9,0.6c0.8,0.4,1.5,1,1.9,1.7c0.5,0.8,0.7,1.6,0.7,2.5
			c0.1,1.3-0.5,2.5-1.5,3.3c-1.2,0.9-2.6,1.3-4.1,1.2L62.5,149.5z M62.5,146.8h2.2c0.6,0,1.1-0.1,1.5-0.5s0.6-0.9,0.5-1.4
			c0-0.6-0.2-1.1-0.5-1.6c-0.4-0.4-0.9-0.6-1.5-0.6h-2.3v4.1H62.5z"/>
		<path class="st0" d="M84.3,146.3l2.6-6.2h3.7l-4.6,9.1v5.1h-3.5v-5.1l-4.6-9.1h3.7L84.3,146.3z"/>
		<path class="st0" d="M104.5,147.5c0,1.3-0.2,2.5-0.8,3.7c-0.5,1-1.2,1.9-2.2,2.5s-2.1,0.9-3.2,0.9s-2.2-0.3-3.2-0.8
			c-0.9-0.6-1.7-1.4-2.2-2.4c-0.5-1.1-0.8-2.3-0.8-3.6V147c0-1.3,0.2-2.5,0.8-3.7c0.5-1,1.2-1.9,2.2-2.5c2-1.2,4.5-1.2,6.5,0
			c1,0.6,1.7,1.4,2.2,2.4c0.5,1.1,0.8,2.4,0.8,3.6L104.5,147.5z M101,146.9c0.1-1.1-0.2-2.2-0.7-3.2c-0.4-0.7-1.2-1.1-2-1.1
			c-1.7,0-2.6,1.3-2.7,3.9v1c-0.1,1.1,0.2,2.2,0.7,3.2c0.4,0.7,1.2,1.2,2.1,1.1c0.8,0,1.6-0.4,2-1.1c0.5-1,0.8-2.1,0.7-3.2
			L101,146.9z"/>
		<path class="st0" d="M118.3,140.1v9.3c0,1-0.2,1.9-0.7,2.7c-0.4,0.8-1.1,1.4-1.9,1.8c-0.9,0.4-2,0.6-3,0.6
			c-1.5,0.1-2.9-0.4-4.1-1.4c-1-1-1.6-2.3-1.5-3.7V140h3.4v9.5c0,1.6,0.8,2.3,2.2,2.3c0.6,0,1.2-0.2,1.6-0.6
			c0.4-0.5,0.6-1.2,0.6-1.9V140L118.3,140.1z"/>
	</g>
</g>
</svg>
