<?xml version="1.0" encoding="utf-8"?>
<!-- Generator: Adobe Illustrator 20.0.0, SVG Export Plug-In . SVG Version: 6.00 Build 0)  -->
<svg version="1.1" id="Layer_1" xmlns="http://www.w3.org/2000/svg" xmlns:xlink="http://www.w3.org/1999/xlink" x="0px" y="0px"
	 viewBox="0 0 209 188.6" style="enable-background:new 0 0 209 188.6;" xml:space="preserve">
<style type="text/css">
	.st0{fill:#FFB149;}
	.st1{fill:#3A2256;}
</style>
<title>placeholder-sml-icon</title>
<g id="Layer_2">
	<g id="home_section_buttons">
		<path class="st0" d="M196.7,5.6c-29.4,13-63.4,14.4-95.7,11.2c-26-2-51-5.9-76-8.9c-2.1-0.2-4.1-0.4-6.2-0.6
			c-4.4,8.9-8,18.1-10.8,27.5c-14.3,51.1-7,100.7,2.6,153.7H209V0C205,2.2,200.9,4.6,196.7,5.6z"/>
		<path class="st1" d="M150,40.9c-30.2-2.3-38,23.5-38,23.5v0.1c0,0-8.9-25.9-39-23c-22.4,1.7-39.7,26.6-26.8,51.7
			c0,0,14.5,30.6,66.3,58.3c50.4-28.5,65.2-59.3,65.2-59.3C190.2,66.9,172.4,42.3,150,40.9z"/>
		<polygon class="st1" points="112.5,151.5 112.5,151.5 112.5,151.5 		"/>
	</g>
</g>
</svg>
