<?xml version="1.0" encoding="utf-8"?>
<!-- Generator: Adobe Illustrator 20.0.0, SVG Export Plug-In . SVG Version: 6.00 Build 0)  -->
<svg version="1.1" id="Layer_1" xmlns="http://www.w3.org/2000/svg" xmlns:xlink="http://www.w3.org/1999/xlink" x="0px" y="0px"
	 viewBox="0 0 136.9 136.2" style="enable-background:new 0 0 136.9 136.2;" xml:space="preserve">
<style type="text/css">
	.st0{fill:none;}
	.st1{fill:#CB2D4C;}
	.st2{fill:#3A2256;}
</style>
<title>take-heading-sml-icon</title>
<g id="Layer_2">
	<g id="section_head_icons">
		<path class="st0" d="M68.1,45.9c-0.1,0.6,0.2,1.2,0.8,1.2c0.3,0,0.6,0,0.8-0.1c0.3,0,0.3-0.4,0.4-0.7c1-3.1,1.2-7.9,1.7-9.8
			c0.6-2.1-2.2-2.1-3.8-1.8c-0.4,0.1-0.2,0.7-0.2,1.2C68,38.1,68.5,43.4,68.1,45.9z"/>
		<path class="st0" d="M53.9,45.7c1.2,1,4.4,3.4,5.7,5c0.2,0.3,0.7,0.4,1,0.2c0,0,0,0,0,0c0.4-0.5,0.2-0.3,0.4-0.5s0-0.4-0.2-0.6
			c-1.2-2.1-3.8-4.7-4.5-5.9c-0.8-1.4-2.3,0.2-3,1.1C53.2,45.2,53.7,45.4,53.9,45.7z"/>
		<path class="st0" d="M57.6,59c0.6,0,1.3-0.4,1.3-1c0-0.3,0-0.6-0.2-0.9c-0.1-0.3-0.4-0.3-0.8-0.4c-3.4-0.7-8.6-0.5-10.5-0.9
			c-2.3-0.4-2.1,2.6-1.9,4.3c0.1,0.5,0.8,0.2,1.3,0.1C49.1,59.9,54.8,58.8,57.6,59z"/>
		<path class="st0" d="M61.4,64.9c-0.2-0.1-0.4,0.1-0.5,0.3c-1.8,1.6-3.9,4.6-4.9,5.5s0.6,2.2,1.7,2.7c0.3,0.1,0.4-0.4,0.6-0.7
			c0.8-1.4,2.5-5,3.8-6.5c0.3-0.3,0.3-0.8,0-1.1c0,0,0,0,0,0C61.4,64.9,61.6,65,61.4,64.9z"/>
		<path class="st0" d="M93.1,43.1l-2.8-7.7l-7.2,7.3c-0.5-0.7-1.2-1.1-2-1.4c-0.3-0.1-0.4,0.4-0.6,0.7c-0.7,1.5-2.2,5.2-3.4,6.7
			c0,0,0,0.1-0.1,0.1l-4.9,4.9c-0.7-0.4-1.4-0.5-2.1-0.5c-2.5,0-4.5,2.1-4.4,4.5c0,2.5,2.1,4.5,4.5,4.4c1.6,0,3.1-0.9,3.9-2.3
			l26.1,3.9l-2.6-7.6l23.5-8l-4.1-13L93.1,43.1z"/>
		<path class="st0" d="M71,69.8c0.1-0.6-0.2-1.2-0.8-1.3c-0.3-0.1-0.6-0.1-0.8,0c-0.3,0-0.4,0.4-0.5,0.7c-1,3.1-1.3,8.1-1.9,9.9
			c-0.6,2.1,2.3,2.4,3.9,2.4c0.5,0,0.2-0.7,0.2-1.2C71,78,70.5,72.4,71,69.8z"/>
		<path class="st0" d="M84.9,70.8c-1.2-1.1-4.2-3.7-5.3-5.3c-0.2-0.4-0.7-0.5-1-0.3c0,0,0,0,0,0c-0.4,0.4-0.2,0.3-0.4,0.5
			s0,0.4,0.1,0.6c1.1,2.2,3.5,4.9,4.1,6.1c0.8,1.4,2.3,0,3.1-0.9C85.6,71.3,85.2,71,84.9,70.8z"/>
		<path class="st0" d="M57.6,59c0.6,0,1.3-0.4,1.3-1c0-0.3,0-0.6-0.2-0.9c-0.1-0.3-0.4-0.3-0.8-0.4c-3.4-0.7-8.6-0.5-10.5-0.9
			c-2.3-0.4-2.1,2.6-1.9,4.3c0.1,0.5,0.8,0.2,1.3,0.1C49.1,59.9,54.8,58.8,57.6,59z"/>
		<path class="st0" d="M68.1,45.9c-0.1,0.6,0.2,1.2,0.8,1.2c0.3,0,0.6,0,0.8-0.1c0.3,0,0.3-0.4,0.4-0.7c1-3.1,1.2-7.9,1.7-9.8
			c0.6-2.1-2.2-2.1-3.8-1.8c-0.4,0.1-0.2,0.7-0.2,1.2C68,38.1,68.5,43.4,68.1,45.9z"/>
		<path class="st0" d="M61.4,64.9c-0.2-0.1-0.4,0.1-0.5,0.3c-1.8,1.6-3.9,4.6-4.9,5.5s0.6,2.2,1.7,2.7c0.3,0.1,0.4-0.4,0.6-0.7
			c0.8-1.4,2.5-5,3.8-6.5c0.3-0.3,0.3-0.8,0-1.1c0,0,0,0,0,0C61.4,64.9,61.6,65,61.4,64.9z"/>
		<path class="st0" d="M53.9,45.7c1.2,1,4.4,3.4,5.7,5c0.2,0.3,0.7,0.4,1,0.2c0,0,0,0,0,0c0.4-0.5,0.2-0.3,0.4-0.5s0-0.4-0.2-0.6
			c-1.2-2.1-3.8-4.7-4.5-5.9c-0.8-1.4-2.3,0.2-3,1.1C53.2,45.2,53.7,45.4,53.9,45.7z"/>
		<path class="st0" d="M71,69.8c0.1-0.6-0.2-1.2-0.8-1.3c-0.3-0.1-0.6-0.1-0.8,0c-0.3,0-0.4,0.4-0.5,0.7c-1,3.1-1.3,8.1-1.9,9.9
			c-0.6,2.1,2.3,2.4,3.9,2.4c0.5,0,0.2-0.7,0.2-1.2C71,78,70.5,72.4,71,69.8z"/>
		<path class="st0" d="M84.9,70.8c-1.2-1.1-4.2-3.7-5.3-5.3c-0.2-0.4-0.7-0.5-1-0.3c0,0,0,0,0,0c-0.4,0.4-0.2,0.3-0.4,0.5
			s0,0.4,0.1,0.6c1.1,2.2,3.5,4.9,4.1,6.1c0.8,1.4,2.3,0,3.1-0.9C85.6,71.3,85.2,71,84.9,70.8z"/>
		<path class="st0" d="M93.1,43.1l-2.8-7.7l-7.2,7.3c-0.5-0.7-1.2-1.1-2-1.4c-0.3-0.1-0.4,0.4-0.6,0.7c-0.7,1.5-2.2,5.2-3.4,6.7
			c0,0,0,0.1-0.1,0.1l-4.9,4.9c-0.7-0.4-1.4-0.5-2.1-0.5c-2.5,0-4.5,2.1-4.4,4.5c0,2.5,2.1,4.5,4.5,4.4c1.6,0,3.1-0.9,3.9-2.3
			l26.1,3.9l-2.6-7.6l23.5-8l-4.1-13L93.1,43.1z"/>
		<path class="st0" d="M53.9,45.7c1.2,1,4.4,3.4,5.7,5c0.2,0.3,0.7,0.4,1,0.2c0,0,0,0,0,0c0.4-0.5,0.2-0.3,0.4-0.5s0-0.4-0.2-0.6
			c-1.2-2.1-3.8-4.7-4.5-5.9c-0.8-1.4-2.3,0.2-3,1.1C53.2,45.2,53.7,45.4,53.9,45.7z"/>
		<path class="st0" d="M57.6,59c0.6,0,1.3-0.4,1.3-1c0-0.3,0-0.6-0.2-0.9c-0.1-0.3-0.4-0.3-0.8-0.4c-3.4-0.7-8.6-0.5-10.5-0.9
			c-2.3-0.4-2.1,2.6-1.9,4.3c0.1,0.5,0.8,0.2,1.3,0.1C49.1,59.9,54.8,58.8,57.6,59z"/>
		<path class="st0" d="M68.1,45.9c-0.1,0.6,0.2,1.2,0.8,1.2c0.3,0,0.6,0,0.8-0.1c0.3,0,0.3-0.4,0.4-0.7c1-3.1,1.2-7.9,1.7-9.8
			c0.6-2.1-2.2-2.1-3.8-1.8c-0.4,0.1-0.2,0.7-0.2,1.2C68,38.1,68.5,43.4,68.1,45.9z"/>
		<path class="st0" d="M61.4,64.9c-0.2-0.1-0.4,0.1-0.5,0.3c-1.8,1.6-3.9,4.6-4.9,5.5s0.6,2.2,1.7,2.7c0.3,0.1,0.4-0.4,0.6-0.7
			c0.8-1.4,2.5-5,3.8-6.5c0.3-0.3,0.3-0.8,0-1.1c0,0,0,0,0,0C61.4,64.9,61.6,65,61.4,64.9z"/>
		<path class="st0" d="M71,69.8c0.1-0.6-0.2-1.2-0.8-1.3c-0.3-0.1-0.6-0.1-0.8,0c-0.3,0-0.4,0.4-0.5,0.7c-1,3.1-1.3,8.1-1.9,9.9
			c-0.6,2.1,2.3,2.4,3.9,2.4c0.5,0,0.2-0.7,0.2-1.2C71,78,70.5,72.4,71,69.8z"/>
		<path class="st0" d="M93.1,43.1l-2.8-7.7l-7.2,7.3c-0.5-0.7-1.2-1.1-2-1.4c-0.3-0.1-0.4,0.4-0.6,0.7c-0.7,1.5-2.2,5.2-3.4,6.7
			c0,0,0,0.1-0.1,0.1l-4.9,4.9c-0.7-0.4-1.4-0.5-2.1-0.5c-2.5,0-4.5,2.1-4.4,4.5c0,2.5,2.1,4.5,4.5,4.4c1.6,0,3.1-0.9,3.9-2.3
			l26.1,3.9l-2.6-7.6l23.5-8l-4.1-13L93.1,43.1z"/>
		<path class="st0" d="M84.9,70.8c-1.2-1.1-4.2-3.7-5.3-5.3c-0.2-0.4-0.7-0.5-1-0.3c0,0,0,0,0,0c-0.4,0.4-0.2,0.3-0.4,0.5
			s0,0.4,0.1,0.6c1.1,2.2,3.5,4.9,4.1,6.1c0.8,1.4,2.3,0,3.1-0.9C85.6,71.3,85.2,71,84.9,70.8z"/>
		<path class="st1" d="M105.5,0.6C76.1-1.7,68.5,23.5,68.5,23.5v0.1c0,0-8.6-25.1-37.9-22.4C8.8,2.9-8,27.1,4.6,51.5
			c0,0,14.1,29.8,64.5,56.7c49.1-27.8,63.4-57.8,63.4-57.8C144.7,25.8,127.3,1.9,105.5,0.6z M68.1,34.7c1.6-0.2,4.4-0.2,3.8,1.8
			c-0.5,1.8-0.8,6.7-1.7,9.8C70,46.6,70,47,69.7,47c-0.3,0.1-0.5,0.1-0.8,0.1c-0.6,0-0.9-0.7-0.8-1.2c0.4-2.6-0.1-7.9-0.2-10
			C67.9,35.4,67.6,34.8,68.1,34.7z M53.4,44.9c0.7-1,2.2-2.5,3-1.1c0.7,1.2,3.3,3.8,4.5,5.9c0.1,0.2,0.3,0.4,0.2,0.6s0,0-0.4,0.5
			c-0.3,0.3-0.8,0.2-1.1-0.1c0,0,0,0,0,0c-1.2-1.5-4.4-3.9-5.7-5C53.7,45.4,53.2,45.2,53.4,44.9z M45.5,60.1
			c-0.3-1.7-0.4-4.7,1.8-4.3c2,0.4,7.2,0.2,10.5,0.9c0.3,0.1,0.7,0.1,0.8,0.4c0.1,0.3,0.2,0.6,0.2,0.9c0,0.6-0.7,1-1.3,1
			c-2.8-0.2-8.5,0.9-10.8,1.2C46.3,60.3,45.6,60.6,45.5,60.1z M62,66.3c-1.3,1.5-3,5.1-3.8,6.5c-0.2,0.3-0.3,0.8-0.6,0.7
			c-1.1-0.5-2.8-1.6-1.7-2.7s3.1-3.9,4.9-5.5c0.2-0.2,0.3-0.4,0.5-0.3s0-0.1,0.5,0.3C62.2,65.5,62.3,65.9,62,66.3
			C62,66.3,62,66.3,62,66.3z M70.9,81.4c-1.6,0-4.5-0.3-3.9-2.4c0.6-1.8,0.8-6.8,1.9-9.9c0.1-0.3,0.1-0.7,0.5-0.7
			c0.3-0.1,0.6-0.1,0.8,0c0.6,0.2,1,0.8,0.8,1.3c-0.5,2.6,0,8.2,0.1,10.4C71.1,80.7,71.3,81.4,70.9,81.4z M85.4,71.5
			c-0.7,0.9-2.3,2.3-3.1,0.9c-0.7-1.2-3-4-4.1-6.1c-0.1-0.2-0.3-0.4-0.1-0.6s-0.1,0,0.4-0.5c0.3-0.2,0.8-0.1,1,0.2c0,0,0,0,0,0
			c1.1,1.6,4.2,4.2,5.3,5.3C85.2,71,85.6,71.3,85.4,71.5z M97.7,56.2l2.6,7.6l-26.2-3.9c-1.2,2.2-3.9,3-6.1,1.9
			c-2.2-1.2-3-3.9-1.9-6.1c1.2-2.2,3.9-3,6.1-1.9c0,0,0,0,0,0l4.8-4.9c0,0,0-0.1,0.1-0.1c1.2-1.5,2.7-5.2,3.4-6.7
			c0.2-0.3,0.2-0.8,0.6-0.7c0.8,0.3,1.5,0.8,2,1.4l7.2-7.3l2.8,7.6l24-7.8l4.1,13L97.7,56.2z"/>
		<polygon class="st2" points="69.1,108.2 69.1,108.2 69.1,108.2 		"/>
		<path class="st1" d="M17.3,124.6h-4.2v11.6H9.6v-11.6H5.4V122h11.8V124.6z"/>
		<path class="st1" d="M25.7,133.5H21l-0.8,2.7h-3.7l5.2-14.2h3.2l5.2,14.2h-3.7L25.7,133.5z M21.8,130.9h3.1l-1.6-4.9L21.8,130.9z"
			/>
		<path class="st1" d="M36,130.9l-1.4,1.5v3.8h-3.4V122h3.4v6.3l1.2-1.8l3.1-4.5h4.2l-4.8,6.3l4.8,7.9h-4.1L36,130.9z"/>
		<path class="st1" d="M52.8,130.2h-5.4v3.4h6.4v2.6H44V122h9.8v2.7h-6.4v3h5.4V130.2z"/>
		<path class="st1" d="M68.3,133.5h-4.7l-0.8,2.7h-3.7l5.2-14.2h3.2l5.2,14.2h-3.7L68.3,133.5z M64.4,130.9h3.1l-1.5-4.9L64.4,130.9
			z"/>
		<path class="st1" d="M85.1,131.4c0,0.9-0.3,1.8-0.8,2.6c-0.5,0.8-1.2,1.4-2,1.8c-0.9,0.4-2,0.6-3,0.6c-1.7,0.1-3.3-0.6-4.4-1.8
			c-1.2-1.4-1.8-3.3-1.7-5.1v-0.7c0-1.3,0.2-2.5,0.7-3.7c0.4-1,1.2-1.8,2.1-2.4c1-0.6,2-0.9,3.2-0.8c1.5-0.1,3,0.4,4.2,1.4
			c1.1,1,1.7,2.3,1.8,3.8h-3.4c0-0.7-0.2-1.4-0.7-1.9c-0.5-0.4-1.2-0.6-1.9-0.6c-0.8-0.1-1.5,0.3-1.9,1c-0.5,0.9-0.7,2-0.6,3.1v1
			c-0.1,1.1,0.1,2.2,0.6,3.2c0.4,0.7,1.2,1.1,2,1c0.7,0,1.3-0.2,1.8-0.6c0.5-0.5,0.7-1.1,0.7-1.8L85.1,131.4z"/>
		<path class="st1" d="M97.6,124.6h-4.3v11.6h-3.4v-11.6h-4.2V122h11.9V124.6z"/>
		<path class="st1" d="M102.7,136.2h-3.4V122h3.4V136.2z"/>
		<path class="st1" d="M117.1,129.4c0,1.3-0.2,2.5-0.8,3.7c-0.5,1-1.2,1.9-2.2,2.5c-1,0.6-2.1,0.9-3.2,0.9c-1.1,0-2.2-0.3-3.2-0.8
			c-0.9-0.6-1.7-1.4-2.2-2.4c-0.5-1.1-0.8-2.3-0.8-3.6v-0.8c0-1.3,0.2-2.5,0.8-3.7c0.5-1,1.2-1.9,2.2-2.5c2-1.2,4.5-1.2,6.5,0
			c1,0.6,1.7,1.4,2.2,2.4c0.5,1.1,0.8,2.4,0.8,3.6L117.1,129.4z M113.6,128.8c0.1-1.1-0.2-2.2-0.7-3.2c-0.4-0.7-1.2-1.1-2-1.1
			c-1.7,0-2.6,1.3-2.7,3.9v1c-0.1,1.1,0.2,2.2,0.7,3.2c0.4,0.7,1.2,1.2,2.1,1.1c0.8,0,1.6-0.4,2-1.1c0.5-1,0.8-2.1,0.7-3.2
			L113.6,128.8z"/>
		<path class="st1" d="M130.8,136.2h-3.4l-5-8.8v8.8h-3.4V122h3.3l5,8.8V122h3.4L130.8,136.2z"/>
	</g>
</g>
</svg>
