<svg xmlns="http://www.w3.org/2000/svg" viewBox="0 0 187.79 188.47"><defs><style>.cls-1{fill:#eecf6e;}.cls-2{fill:none;}.cls-3{fill:#3a2256;}</style></defs><title>take-action-sml-icon</title><g id="Layer_2" data-name="Layer 2"><g id="home_section_buttons" data-name="home section buttons"><path class="cls-1" d="M177,34.78A180.81,180.81,0,0,1,187.79,6.94c-4.18-.44-8.38-.47-12.58-1.47-45.16-4-91.78-10-135.24,0-13.68,4-27.05,8.38-40,15.13V188.47H179.62C170,135.47,162.66,85.88,177,34.78Z"/><path class="cls-2" d="M83.59,79.66c-.09.56.25,1.22.81,1.21a2,2,0,0,0,.81-.11c.32,0,.35-.39.45-.69,1-3.1,1.22-7.92,1.74-9.75.59-2.08-2.24-2.06-3.8-1.84-.45.06-.23.72-.21,1.18C83.49,71.8,84,77.08,83.59,79.66Z"/><path class="cls-2" d="M69.48,79.38c1.24,1,4.44,3.42,5.65,5a.75.75,0,0,0,1.09.17c.42-.45.21-.29.36-.5s0-.38-.15-.59c-1.21-2.09-3.76-4.66-4.5-5.87-.84-1.37-2.31.17-3,1.12C68.74,78.95,69.22,79.16,69.48,79.38Z"/><path class="cls-2" d="M73.12,92.69c.6,0,1.3-.39,1.27-1a2.12,2.12,0,0,0-.15-.87c-.06-.34-.43-.34-.76-.41-3.37-.74-8.57-.51-10.55-.89-2.26-.43-2.14,2.62-1.85,4.28.09.48.79.17,1.27.11C64.66,93.6,70.33,92.49,73.12,92.69Z"/><path class="cls-2" d="M76.9,98.65c-.22-.1-.37.1-.55.26-1.83,1.58-3.88,4.56-4.92,5.52s.6,2.23,1.66,2.73c.31.14.43-.37.59-.67.79-1.41,2.53-5,3.81-6.48a.75.75,0,0,0,0-1.1C76.93,98.59,77.13,98.76,76.9,98.65Z"/><path class="cls-2" d="M108.65,76.82l-2.76-7.63-7.21,7.29a4.32,4.32,0,0,0-2-1.41c-.32-.12-.4.4-.55.7-.7,1.46-2.21,5.15-3.4,6.7a.87.87,0,0,0-.05.1L87.8,87.46a4.44,4.44,0,0,0-2.13-.54,4.49,4.49,0,1,0,4,6.63l26.18,3.94-2.61-7.55,23.55-8-4.11-13Z"/><path class="cls-2" d="M86.51,103.51a1.14,1.14,0,0,0-.82-1.35,2,2,0,0,0-.84,0c-.33,0-.36.36-.46.67-1,3.1-1.33,8.07-1.88,9.9-.63,2.08,2.28,2.4,3.88,2.36.46,0,.24-.72.23-1.19C86.55,111.68,86.05,106.14,86.51,103.51Z"/><path class="cls-2" d="M100.46,104.53c-1.17-1.11-4.22-3.68-5.34-5.29A.75.75,0,0,0,94.05,99c-.44.42-.23.27-.39.47s0,.39.12.6c1.08,2.16,3.46,4.89,4.13,6.13.76,1.42,2.31,0,3.05-.94C101.18,105,100.71,104.76,100.46,104.53Z"/><path class="cls-2" d="M73.12,92.69c.6,0,1.3-.39,1.27-1a2.12,2.12,0,0,0-.15-.87c-.06-.34-.43-.34-.76-.41-3.37-.74-8.57-.51-10.55-.89-2.26-.43-2.14,2.62-1.85,4.28.09.48.79.17,1.27.11C64.66,93.6,70.33,92.49,73.12,92.69Z"/><path class="cls-2" d="M83.59,79.66c-.09.56.25,1.22.81,1.21a2,2,0,0,0,.81-.11c.32,0,.35-.39.45-.69,1-3.1,1.22-7.92,1.74-9.75.59-2.08-2.24-2.06-3.8-1.84-.45.06-.23.72-.21,1.18C83.49,71.8,84,77.08,83.59,79.66Z"/><path class="cls-2" d="M76.9,98.65c-.22-.1-.37.1-.55.26-1.83,1.58-3.88,4.56-4.92,5.52s.6,2.23,1.66,2.73c.31.14.43-.37.59-.67.79-1.41,2.53-5,3.81-6.48a.75.75,0,0,0,0-1.1C76.93,98.59,77.13,98.76,76.9,98.65Z"/><path class="cls-2" d="M69.48,79.38c1.24,1,4.44,3.42,5.65,5a.75.75,0,0,0,1.09.17c.42-.45.21-.29.36-.5s0-.38-.15-.59c-1.21-2.09-3.76-4.66-4.5-5.87-.84-1.37-2.31.17-3,1.12C68.74,78.95,69.22,79.16,69.48,79.38Z"/><path class="cls-2" d="M86.51,103.51a1.14,1.14,0,0,0-.82-1.35,2,2,0,0,0-.84,0c-.33,0-.36.36-.46.67-1,3.1-1.33,8.07-1.88,9.9-.63,2.08,2.28,2.4,3.88,2.36.46,0,.24-.72.23-1.19C86.55,111.68,86.05,106.14,86.51,103.51Z"/><path class="cls-2" d="M100.46,104.53c-1.17-1.11-4.22-3.68-5.34-5.29A.75.75,0,0,0,94.05,99c-.44.42-.23.27-.39.47s0,.39.12.6c1.08,2.16,3.46,4.89,4.13,6.13.76,1.42,2.31,0,3.05-.94C101.18,105,100.71,104.76,100.46,104.53Z"/><path class="cls-2" d="M108.65,76.82l-2.76-7.63-7.21,7.29a4.32,4.32,0,0,0-2-1.41c-.32-.12-.4.4-.55.7-.7,1.46-2.21,5.15-3.4,6.7a.87.87,0,0,0-.05.1L87.8,87.46a4.44,4.44,0,0,0-2.13-.54,4.49,4.49,0,1,0,4,6.63l26.18,3.94-2.61-7.55,23.55-8-4.11-13Z"/><path class="cls-2" d="M69.48,79.38c1.24,1,4.44,3.42,5.65,5a.75.75,0,0,0,1.09.17c.42-.45.21-.29.36-.5s0-.38-.15-.59c-1.21-2.09-3.76-4.66-4.5-5.87-.84-1.37-2.31.17-3,1.12C68.74,78.95,69.22,79.16,69.48,79.38Z"/><path class="cls-2" d="M73.12,92.69c.6,0,1.3-.39,1.27-1a2.12,2.12,0,0,0-.15-.87c-.06-.34-.43-.34-.76-.41-3.37-.74-8.57-.51-10.55-.89-2.26-.43-2.14,2.62-1.85,4.28.09.48.79.17,1.27.11C64.66,93.6,70.33,92.49,73.12,92.69Z"/><path class="cls-2" d="M83.59,79.66c-.09.56.25,1.22.81,1.21a2,2,0,0,0,.81-.11c.32,0,.35-.39.45-.69,1-3.1,1.22-7.92,1.74-9.75.59-2.08-2.24-2.06-3.8-1.84-.45.06-.23.72-.21,1.18C83.49,71.8,84,77.08,83.59,79.66Z"/><path class="cls-2" d="M76.9,98.65c-.22-.1-.37.1-.55.26-1.83,1.58-3.88,4.56-4.92,5.52s.6,2.23,1.66,2.73c.31.14.43-.37.59-.67.79-1.41,2.53-5,3.81-6.48a.75.75,0,0,0,0-1.1C76.93,98.59,77.13,98.76,76.9,98.65Z"/><path class="cls-2" d="M86.51,103.51a1.14,1.14,0,0,0-.82-1.35,2,2,0,0,0-.84,0c-.33,0-.36.36-.46.67-1,3.1-1.33,8.07-1.88,9.9-.63,2.08,2.28,2.4,3.88,2.36.46,0,.24-.72.23-1.19C86.55,111.68,86.05,106.14,86.51,103.51Z"/><path class="cls-2" d="M108.65,76.82l-2.76-7.63-7.21,7.29a4.32,4.32,0,0,0-2-1.41c-.32-.12-.4.4-.55.7-.7,1.46-2.21,5.15-3.4,6.7a.87.87,0,0,0-.05.1L87.8,87.46a4.44,4.44,0,0,0-2.13-.54,4.49,4.49,0,1,0,4,6.63l26.18,3.94-2.61-7.55,23.55-8-4.11-13Z"/><path class="cls-2" d="M100.46,104.53c-1.17-1.11-4.22-3.68-5.34-5.29A.75.75,0,0,0,94.05,99c-.44.42-.23.27-.39.47s0,.39.12.6c1.08,2.16,3.46,4.89,4.13,6.13.76,1.42,2.31,0,3.05-.94C101.18,105,100.71,104.76,100.46,104.53Z"/><path class="cls-3" d="M121.05,34.31C91.68,32,84,57.21,84,57.21v.1S75.42,32.15,46.09,34.91c-21.79,1.68-38.53,25.87-26,50.31,0,0,14.12,29.81,64.51,56.7C133.71,114.13,148,84.2,148,84.2,160.2,59.56,142.86,35.64,121.05,34.31ZM83.61,68.47c1.56-.22,4.39-.24,3.8,1.84-.52,1.82-.77,6.65-1.74,9.75-.1.31-.13.65-.45.69a2,2,0,0,1-.81.11c-.56,0-.9-.65-.81-1.21.43-2.58-.11-7.86-.19-10C83.38,69.2,83.16,68.54,83.61,68.47ZM68.93,78.67c.68-1,2.15-2.49,3-1.12.74,1.2,3.29,3.78,4.5,5.87.12.21.3.4.15.59s.05,0-.36.5a.75.75,0,0,1-1.09-.17c-1.21-1.53-4.41-3.91-5.65-5C69.22,79.16,68.74,78.95,68.93,78.67ZM61.08,93.81c-.3-1.66-.41-4.71,1.85-4.28,2,.38,7.19.15,10.55.89.33.07.71.07.76.41a2.12,2.12,0,0,1,.15.87c0,.6-.67,1-1.27,1-2.79-.2-8.46.91-10.77,1.22C61.87,94,61.16,94.29,61.08,93.81ZM77.49,100c-1.28,1.48-3,5.07-3.81,6.48-.17.3-.29.81-.59.67-1.07-.49-2.85-1.64-1.66-2.73s3.09-3.94,4.92-5.52c.18-.16.34-.36.55-.26s0-.06.55.26A.75.75,0,0,1,77.49,100Zm8.91,15.1c-1.6,0-4.5-.27-3.88-2.36.55-1.83.85-6.81,1.88-9.9.1-.31.14-.66.46-.67a2,2,0,0,1,.84,0,1.14,1.14,0,0,1,.82,1.35c-.46,2.63,0,8.17.11,10.41C86.63,114.39,86.85,115.1,86.39,115.11ZM101,105.27c-.74.91-2.3,2.35-3.05.94-.67-1.25-3-4-4.13-6.13-.11-.21-.27-.42-.12-.6s-.05,0,.39-.47a.75.75,0,0,1,1.07.24c1.11,1.61,4.16,4.18,5.34,5.29C100.71,104.76,101.18,105,101,105.27Zm12.25-15.33,2.61,7.55L89.63,93.55a4.51,4.51,0,1,1-1.83-6.09l4.84-4.89a.87.87,0,0,1,.05-.1c1.19-1.55,2.7-5.24,3.4-6.7.15-.31.24-.82.55-.7a4.32,4.32,0,0,1,2,1.41l7.21-7.29,2.76,7.63,24-7.84,4.11,13Z"/><polygon class="cls-3" points="84.67 141.92 84.66 141.91 84.66 141.92 84.67 141.92"/><path class="cls-3" d="M32.85,158.35H28.58v11.57H25.15V158.35H21V155.7H32.85Z"/><path class="cls-3" d="M41.2,167.26H36.5l-.82,2.66H32l5.21-14.22h3.22l5.25,14.22H42Zm-3.88-2.65h3.06l-1.53-4.93Z"/><path class="cls-3" d="M51.58,164.62l-1.41,1.54v3.75H46.74V155.7h3.43V162l1.19-1.81,3.07-4.46h4.24L53.86,162l4.8,7.93H54.61Z"/><path class="cls-3" d="M68.36,163.88H63v3.4h6.37v2.64H59.54V155.7h9.81v2.65H63v3h5.39Z"/><path class="cls-3" d="M83.79,167.26h-4.7l-.82,2.66H74.61l5.21-14.22H83l5.25,14.22H84.62Zm-3.88-2.65H83l-1.53-4.93Z"/><path class="cls-3" d="M100.63,165.1a5.19,5.19,0,0,1-.8,2.62,4.83,4.83,0,0,1-2.06,1.76,7,7,0,0,1-3,.63,5.59,5.59,0,0,1-4.41-1.83,7.54,7.54,0,0,1-1.61-5.16v-.7a8.61,8.61,0,0,1,.73-3.66,5.51,5.51,0,0,1,2.09-2.42,5.85,5.85,0,0,1,3.16-.85,6.13,6.13,0,0,1,4.16,1.36,5.38,5.38,0,0,1,1.79,3.75H97.24a2.55,2.55,0,0,0-.65-1.87,2.69,2.69,0,0,0-1.87-.57,2,2,0,0,0-1.87,1,6.15,6.15,0,0,0-.62,3.06v1a6.8,6.8,0,0,0,.57,3.25,2.09,2.09,0,0,0,2,1,2.63,2.63,0,0,0,1.81-.56,2.36,2.36,0,0,0,.66-1.77Z"/><path class="cls-3" d="M113.13,158.35h-4.27v11.57h-3.43V158.35h-4.19V155.7h11.88Z"/><path class="cls-3" d="M118.23,169.92h-3.42V155.7h3.42Z"/><path class="cls-3" d="M132.65,163.1a8.39,8.39,0,0,1-.77,3.68,5.7,5.7,0,0,1-2.19,2.47,6.1,6.1,0,0,1-3.24.86,6.19,6.19,0,0,1-3.22-.83,5.69,5.69,0,0,1-2.19-2.39,8.14,8.14,0,0,1-.83-3.56v-.8a8.42,8.42,0,0,1,.77-3.69,5.69,5.69,0,0,1,2.2-2.47,6.5,6.5,0,0,1,6.48,0,5.79,5.79,0,0,1,2.2,2.45,8.18,8.18,0,0,1,.8,3.64Zm-3.49-.6a6,6,0,0,0-.71-3.22,2.27,2.27,0,0,0-2-1.1q-2.58,0-2.72,3.87v1a6.15,6.15,0,0,0,.69,3.21,2.27,2.27,0,0,0,2.06,1.12,2.24,2.24,0,0,0,2-1.1,6,6,0,0,0,.71-3.17Z"/><path class="cls-3" d="M146.29,169.92h-3.41l-5-8.85v8.85h-3.43V155.7h3.43l5,8.85V155.7h3.42Z"/></g></g></svg>