<svg xmlns="http://www.w3.org/2000/svg" viewBox="0 0 136.26 137.29"><defs><style>.cls-1{fill:#3a2256;}</style></defs><title>whats-heading2-sml-icon</title><g id="Layer_2" data-name="Layer 2"><g id="home_section_buttons" data-name="home section buttons"><path class="cls-1" d="M68.23,107.67c49.28-26,63.87-57.3,63.87-57.3C144.47,25.83,127.35,1.68,105.55.18,76.19-2.35,68.4,22.79,68.4,22.79v.1S59.93-2.34,30.58.18C8.78,1.68-8.19,25.83,4.18,50.37,4.18,50.37,18.05,81.67,68.23,107.67ZM74.4,39.43l30,16.83-30,17Zm-33,0,30,16.83-30,17Z"/><path class="cls-1" d="M14.46,131.79l1.63-8.92h3.4l-3,14.22H12.92L11,129l-1.87,8.11H5.61l-3-14.22H6l1.63,8.92,2-8.92h2.91Z"/><path class="cls-1" d="M128.43,131.79l1.63-8.92h3.4l-3,14.22h-3.55L125,129l-1.87,8.11h-3.54l-3-14.22H120l1.63,8.92,2-8.92h2.91Z"/><path class="cls-1" d="M33.72,137.09H30.31v-5.94h-5v5.94H21.83V122.88h3.43v5.64h5v-5.64h3.41Z"/><path class="cls-1" d="M45.14,134.44h-4.7l-.82,2.66H36l5.21-14.22h3.22l5.25,14.22H46Zm-3.88-2.65h3.06l-1.53-4.93Z"/><path class="cls-1" d="M61.67,125.52H57.41v11.57H54V125.52H49.79v-2.65H61.67Z"/><path class="cls-1" d="M65.13,127.33l-1.45-.78a5.67,5.67,0,0,0,.83-2.75v-1.7h2.4v1.59a4.3,4.3,0,0,1-.52,1.94A5.85,5.85,0,0,1,65.13,127.33Z"/><path class="cls-1" d="M77.31,133.31a1.41,1.41,0,0,0-.53-1.17,6.6,6.6,0,0,0-1.87-.87,17.9,17.9,0,0,1-2.19-.87Q70,129,70,126.67a3.35,3.35,0,0,1,.69-2.08,4.45,4.45,0,0,1,1.95-1.41,7.59,7.59,0,0,1,2.83-.5,6.62,6.62,0,0,1,2.75.55,4.36,4.36,0,0,1,1.89,1.56,4.07,4.07,0,0,1,.67,2.31H77.32a1.72,1.72,0,0,0-.53-1.35,2.08,2.08,0,0,0-1.44-.48,2.34,2.34,0,0,0-1.45.41,1.19,1.19,0,0,0,.05,2,7.4,7.4,0,0,0,2.06.92,12.56,12.56,0,0,1,2.42,1,4.07,4.07,0,0,1,2.3,3.66,3.47,3.47,0,0,1-1.41,2.93,6.26,6.26,0,0,1-3.86,1.06,7.66,7.66,0,0,1-3.13-.62,4.71,4.71,0,0,1-2.11-1.7,4.43,4.43,0,0,1-.71-2.49H73a2.18,2.18,0,0,0,.59,1.68,2.79,2.79,0,0,0,1.92.54,2.21,2.21,0,0,0,1.34-.37A1.21,1.21,0,0,0,77.31,133.31Z"/><path class="cls-1" d="M101.35,137.09H97.94l-5-8.85v8.85H89.47V122.88H92.9l5,8.85v-8.85h3.42Z"/><path class="cls-1" d="M113.33,131.06h-5.39v3.4h6.37v2.64h-9.79V122.88h9.81v2.65h-6.39v3h5.39Z"/></g></g></svg>