<?xml version="1.0" encoding="utf-8"?>
<!-- Generator: Adobe Illustrator 20.0.0, SVG Export Plug-In . SVG Version: 6.00 Build 0)  -->
<svg version="1.1" id="Layer_1" xmlns="http://www.w3.org/2000/svg" xmlns:xlink="http://www.w3.org/1999/xlink" x="0px" y="0px"
	 viewBox="0 0 139.6 136.9" style="enable-background:new 0 0 139.6 136.9;" xml:space="preserve">
<style type="text/css">
	.st0{fill:#7C0260;}
</style>
<title>whats-heading-sml-icon</title>
<g id="Layer_2">
	<g id="section_head_icons">
		<path class="st0" d="M106.2,0.5C76.8-2,69,23.1,69,23.1v0.1c0,0-8.5-25.2-37.8-22.7C9.4,2-7.6,26.1,4.8,50.7
			c0,0,13.9,31.3,64.1,57.3l0,0c49.3-26,63.9-57.3,63.9-57.3C145.1,26.1,128,2,106.2,0.5z M42.1,73.5V39.7l30,16.8L42.1,73.5z
			 M75.1,73.5V39.7l30,16.8L75.1,73.5z"/>
		<path class="st0" d="M12.1,131.2l1.6-8.9h3.4l-3,14.2h-3.6l-1.9-8.1l-1.9,8.1H3.2l-3-14.2h3.4l1.6,8.9l2-8.9h2.9L12.1,131.2z"/>
		<path class="st0" d="M31.3,136.5h-3.4v-5.9h-5v5.9h-3.5v-14.2h3.4v5.6h5v-5.6h3.4L31.3,136.5z"/>
		<path class="st0" d="M42.8,133.8h-4.7l-0.9,2.6h-3.6l5.2-14.2H42l5.2,14.2h-3.7L42.8,133.8z M38.9,131.2h3.1l-1.5-4.9L38.9,131.2z
			"/>
		<path class="st0" d="M59.3,124.9H55v11.6h-3.4v-11.6h-4.2v-2.6h11.9V124.9z"/>
		<path class="st0" d="M62.8,126.7l-1.5-0.8c0.5-0.8,0.8-1.8,0.8-2.8v-1.7h2.4v1.6c0,0.7-0.2,1.3-0.5,1.9
			C63.7,125.6,63.3,126.2,62.8,126.7z"/>
		<path class="st0" d="M74.9,132.7c0-0.5-0.2-0.9-0.5-1.2c-0.6-0.4-1.2-0.7-1.9-0.9c-0.7-0.2-1.5-0.5-2.2-0.9
			c-1.8-0.9-2.8-2.2-2.8-3.7c0-0.8,0.2-1.5,0.7-2.1c0.5-0.6,1.2-1.1,1.9-1.4c0.9-0.3,1.9-0.5,2.8-0.5c0.9,0,1.9,0.2,2.8,0.6
			c0.8,0.3,1.4,0.9,1.9,1.6c0.5,0.7,0.7,1.5,0.7,2.3h-3.4c0-0.5-0.2-1-0.5-1.3c-0.4-0.3-0.9-0.5-1.4-0.5c-0.5,0-1,0.1-1.4,0.4
			c-0.5,0.4-0.7,1.1-0.3,1.7c0.1,0.1,0.2,0.3,0.4,0.3c0.6,0.4,1.3,0.7,2.1,0.9c0.8,0.2,1.7,0.6,2.4,1c1.4,0.7,2.3,2.1,2.3,3.7
			c0,1.2-0.5,2.2-1.4,2.9c-1.1,0.8-2.5,1.1-3.9,1.1c-1.1,0-2.1-0.2-3.1-0.6c-0.9-0.3-1.6-0.9-2.1-1.7c-0.5-0.7-0.7-1.6-0.7-2.5h3.4
			c-0.1,0.6,0.2,1.2,0.6,1.7c0.6,0.4,1.2,0.6,1.9,0.5c0.5,0,0.9-0.1,1.3-0.4C74.7,133.4,74.9,133.1,74.9,132.7z"/>
		<path class="st0" d="M99,136.5h-3.4l-5-8.8v8.8h-3.5v-14.2h3.4l5,8.9v-8.9h3.4L99,136.5z"/>
		<path class="st0" d="M111,130.4h-5.4v3.4h6.4v2.6h-9.8v-14.2h9.8v2.7h-6.4v3h5.4V130.4z"/>
		<path class="st0" d="M119.6,127l2.3-4.7h3.9l-4,7.1l4.1,7.2h-4l-2.4-4.8l-2.4,4.8h-3.9l4.1-7.2l-4-7.1h3.9L119.6,127z"/>
		<path class="st0" d="M139.3,124.9H135v11.6h-3.4v-11.6h-4.2v-2.6h11.9L139.3,124.9z"/>
	</g>
</g>
</svg>
