<?xml version="1.0" encoding="utf-8"?>
<!-- Generator: Adobe Illustrator 20.0.0, SVG Export Plug-In . SVG Version: 6.00 Build 0)  -->
<svg version="1.1" id="Layer_1" xmlns="http://www.w3.org/2000/svg" xmlns:xlink="http://www.w3.org/1999/xlink" x="0px" y="0px"
	 viewBox="0 0 191.5 208.7" style="enable-background:new 0 0 191.5 208.7;" xml:space="preserve">
<style type="text/css">
	.st0{fill:#EECF6E;}
	.st1{fill:#3A2256;}
</style>
<title>whats-new-sml-icon</title>
<g id="Layer_2">
	<g id="home_section_buttons">
		<path class="st0" d="M44.6,7.3c-10.6,1.8-21.2,3.5-31.8,5c-2.6,0.4-5.3,0.7-7.9,1.1c14.3,40.6,31.9,78.5,21.6,121.8
			c-5.3,21.1-16,39.7-25,58.8L1,195.2c-0.2,0.4-0.4,0.9-0.6,1.4l6.2,0.6c25,3,50,7,76,9c32.3,3.2,66.2,1.4,95.7-11
			c4.2-1.8,8.3-3.8,12.3-6V12C143.8-1.7,94.2-1.5,44.6,7.3z"/>
		<path class="st1" d="M106.5,140.3c49.3-26,63.9-57.3,63.9-57.3c12.4-24.5-4.8-48.7-26.6-50.2c-29.4-2.5-37.2,22.6-37.2,22.6v0.1
			c0,0-8.5-25.2-37.8-22.7C47,34.3,30,58.4,42.4,83C42.4,83,56.3,114.3,106.5,140.3z M112.6,72l30,16.8l-30,17V72z M79.6,72l30,16.8
			l-30,17V72z"/>
		<path class="st1" d="M52.7,164.4l1.6-8.9h3.4l-3,14.2h-3.6l-1.9-8.1l-1.8,8.1h-3.6l-3-14.2h3.4l1.6,8.9l2-8.9h2.8L52.7,164.4z"/>
		<path class="st1" d="M166.7,164.4l1.6-8.9h3.4l-3,14.2h-3.6l-1.9-8.1l-1.9,8.1h-3.5l-3-14.2h3.4l1.6,8.9l2-8.9h2.9L166.7,164.4z"
			/>
		<path class="st1" d="M71.9,169.7h-3.4v-5.9h-5v5.9h-3.5v-14.2h3.4v5.7h5v-5.6h3.4L71.9,169.7z"/>
		<path class="st1" d="M83.4,167h-4.7l-0.8,2.7h-3.7l5.2-14.2h3.2l5.2,14.2h-3.7L83.4,167z M79.5,164.4h3.1l-1.5-4.9L79.5,164.4z"/>
		<path class="st1" d="M99.9,158.1h-4.3v11.6h-3.4v-11.6H88v-2.6h11.9V158.1z"/>
		<path class="st1" d="M103.4,159.9l-1.4-0.8c0.5-0.8,0.8-1.8,0.8-2.8v-1.7h2.4v1.6c0,0.7-0.2,1.3-0.5,1.9
			C104.4,158.9,103.9,159.4,103.4,159.9z"/>
		<path class="st1" d="M115.5,165.9c0-0.5-0.2-0.9-0.5-1.2c-0.6-0.4-1.2-0.7-1.9-0.9c-0.7-0.2-1.5-0.5-2.2-0.9
			c-1.8-0.9-2.8-2.1-2.8-3.7c0-0.8,0.2-1.5,0.7-2.1c0.5-0.6,1.2-1.1,1.9-1.4c0.9-0.3,1.9-0.5,2.8-0.5c0.9,0,1.9,0.2,2.8,0.6
			c0.8,0.3,1.4,0.9,1.9,1.6c0.5,0.7,0.7,1.5,0.7,2.3h-3.4c0-0.5-0.2-1-0.5-1.4c-0.4-0.3-0.9-0.5-1.4-0.5c-0.5,0-1,0.1-1.4,0.4
			c-0.5,0.4-0.7,1.1-0.3,1.7c0.1,0.1,0.2,0.3,0.4,0.3c0.6,0.4,1.3,0.7,2.1,0.9c0.8,0.2,1.7,0.6,2.4,1c1.4,0.7,2.3,2.1,2.3,3.7
			c0,1.2-0.5,2.2-1.4,2.9c-1.1,0.8-2.5,1.1-3.9,1.1c-1.1,0-2.1-0.2-3.1-0.6c-0.9-0.3-1.6-0.9-2.1-1.7c-0.5-0.7-0.7-1.6-0.7-2.5h3.4
			c-0.1,0.6,0.2,1.2,0.6,1.7c0.6,0.4,1.2,0.6,1.9,0.5c0.5,0,0.9-0.1,1.3-0.4C115.3,166.6,115.5,166.3,115.5,165.9z"/>
		<path class="st1" d="M139.6,169.7h-3.4l-5-8.9v8.9h-3.4v-14.2h3.4l5,8.9v-8.9h3.4L139.6,169.7z"/>
		<path class="st1" d="M151.6,163.6h-5.4v3.4h6.4v2.6h-9.8v-14.2h9.8v2.7h-6.4v3h5.4V163.6z"/>
	</g>
</g>
</svg>
