<svg xmlns="http://www.w3.org/2000/svg" viewBox="0 0 190.21 206.55"><defs><style>.cls-1{fill:#eecf6e;}.cls-2{fill:#3a2256;}</style></defs><title>whats-next-sml-icon</title><g id="Layer_2" data-name="Layer 2"><g id="home_section_buttons" data-name="home section buttons"><path class="cls-1" d="M44.21,6.14q-15.92,2.72-31.79,5-3.95.56-7.89,1.1C18.84,52.83,36.39,90.79,26.17,134c-5.28,21.12-16,39.74-25,58.8l-.56,1.32c-.22.45-.43.91-.65,1.36l6.21.64c25,3,50,7,76,9,32.29,3.23,66.24,1.44,95.67-11a126.54,126.54,0,0,0,12.33-6V10.85C143.35-2.83,93.79-2.61,44.21,6.14Z"/><path class="cls-2" d="M106.05,139.14c49.28-26,63.87-57.3,63.87-57.3,12.37-24.54-4.75-48.69-26.55-50.19C114,29.12,106.21,54.25,106.21,54.25v.1S97.75,29.12,68.4,31.65C46.6,33.15,29.63,57.3,42,81.84,42,81.84,55.87,113.14,106.05,139.14Zm6.16-68.24,30,16.83-30,17Zm-33,0,30,16.83-30,17Z"/><path class="cls-2" d="M49.28,163.26l1.63-8.92h3.4l-3,14.22H47.74l-1.9-8.11L44,168.56H40.43l-3-14.22h3.41l1.63,8.92,2-8.92H47.3Z"/><path class="cls-2" d="M68.53,168.56H65.13v-5.94h-5v5.94H56.65V154.34h3.43V160h5v-5.64h3.41Z"/><path class="cls-2" d="M80,165.91h-4.7l-.82,2.66H70.77L76,154.34h3.22l5.25,14.22H80.78Zm-3.88-2.65h3.06l-1.53-4.93Z"/><path class="cls-2" d="M96.49,157H92.22v11.57H88.8V157H84.61v-2.65H96.49Z"/><path class="cls-2" d="M100,158.8,98.51,158a5.67,5.67,0,0,0,.83-2.75v-1.7h2.4v1.59a4.3,4.3,0,0,1-.52,1.94A5.85,5.85,0,0,1,100,158.8Z"/><path class="cls-2" d="M112.12,164.78a1.41,1.41,0,0,0-.53-1.17,6.6,6.6,0,0,0-1.87-.87,17.9,17.9,0,0,1-2.19-.87q-2.76-1.36-2.76-3.73a3.35,3.35,0,0,1,.69-2.08,4.45,4.45,0,0,1,1.95-1.41,7.59,7.59,0,0,1,2.83-.5,6.62,6.62,0,0,1,2.75.55,4.36,4.36,0,0,1,1.89,1.56,4.07,4.07,0,0,1,.67,2.31h-3.42a1.72,1.72,0,0,0-.53-1.35,2.08,2.08,0,0,0-1.44-.48,2.34,2.34,0,0,0-1.45.41,1.19,1.19,0,0,0,.05,2,7.4,7.4,0,0,0,2.06.92,12.56,12.56,0,0,1,2.42,1,4.07,4.07,0,0,1,2.3,3.66,3.47,3.47,0,0,1-1.41,2.93,6.26,6.26,0,0,1-3.86,1.06,7.66,7.66,0,0,1-3.13-.62,4.71,4.71,0,0,1-2.11-1.7,4.43,4.43,0,0,1-.71-2.49h3.44a2.18,2.18,0,0,0,.59,1.68,2.79,2.79,0,0,0,1.92.54,2.21,2.21,0,0,0,1.34-.37A1.21,1.21,0,0,0,112.12,164.78Z"/><path class="cls-2" d="M136.17,168.56h-3.41l-5-8.85v8.85h-3.43V154.34h3.43l5,8.85v-8.85h3.42Z"/><path class="cls-2" d="M148.15,162.53h-5.39v3.4h6.37v2.64h-9.79V154.34h9.81V157h-6.39v3h5.39Z"/><path class="cls-2" d="M156.83,159.07l2.32-4.73h3.92l-4,7.05,4.08,7.17h-4l-2.39-4.81-2.39,4.81h-3.95l4.07-7.17-4-7.05h3.91Z"/><path class="cls-2" d="M176.45,157h-4.27v11.57h-3.43V157h-4.19v-2.65h11.88Z"/></g></g></svg>