<?xml version="1.0" encoding="utf-8"?>
<!-- Generator: Adobe Illustrator 20.0.0, SVG Export Plug-In . SVG Version: 6.00 Build 0)  -->
<svg version="1.1" id="Layer_1" xmlns="http://www.w3.org/2000/svg" xmlns:xlink="http://www.w3.org/1999/xlink" x="0px" y="0px"
	 viewBox="0 0 137.1 137.8" style="enable-background:new 0 0 137.1 137.8;" xml:space="preserve">
<style type="text/css">
	.st0{fill:#7C0260;}
</style>
<title>whats-heading2-sml-icon</title>
<g id="Layer_2">
	<g id="home_section_buttons">
		<path class="st0" d="M68.5,108c49.3-26,63.9-57.3,63.9-57.3c12.4-24.5-4.8-48.7-26.6-50.2C76.5-2,68.7,23.2,68.7,23.2v0.1
			c0,0-8.5-25.2-37.8-22.7C9.1,2-7.9,26.2,4.5,50.7C4.5,50.7,18.4,82,68.5,108z M74.7,39.8l30,16.8l-30,17V39.8z M41.7,39.8l30,16.8
			l-30,17V39.8z"/>
		<path class="st0" d="M14.8,132.2l1.6-8.9h3.4l-3,14.2h-3.6l-1.9-8.1l-1.9,8.1H5.9l-3-14.2h3.4l1.6,8.9l2-8.9h2.9L14.8,132.2z"/>
		<path class="st0" d="M128.7,132.2l1.6-8.9h3.4l-3,14.2h-3.6l-1.9-8.1l-1.9,8.1h-3.5l-3-14.2h3.4l1.6,8.9l2-8.9h2.9L128.7,132.2z"
			/>
		<path class="st0" d="M34,137.5h-3.4v-5.9h-5v5.9h-3.5v-14.2h3.4v5.6h5v-5.6H34L34,137.5z"/>
		<path class="st0" d="M45.5,134.8h-4.7l-0.8,2.7h-3.6l5.2-14.2h3.2l5.2,14.2h-3.7L45.5,134.8z M41.6,132.2h3.1l-1.5-4.9L41.6,132.2
			z"/>
		<path class="st0" d="M62,125.9h-4.3v11.6h-3.4v-11.6h-4.2v-2.7H62V125.9z"/>
		<path class="st0" d="M65.4,127.7l-1.4-0.8c0.5-0.8,0.8-1.8,0.8-2.8v-1.7h2.4v1.6c0,0.7-0.2,1.3-0.5,1.9
			C66.4,126.6,66,127.2,65.4,127.7z"/>
		<path class="st0" d="M77.6,133.7c0-0.5-0.2-0.9-0.5-1.2c-0.6-0.4-1.2-0.7-1.9-0.9c-0.7-0.2-1.5-0.5-2.2-0.9
			c-1.8-0.9-2.7-2.2-2.7-3.7c0-0.8,0.2-1.5,0.7-2.1c0.5-0.6,1.2-1.1,1.9-1.4c0.9-0.3,1.9-0.5,2.8-0.5c0.9,0,1.9,0.2,2.8,0.6
			c0.8,0.3,1.4,0.9,1.9,1.6c0.5,0.7,0.7,1.5,0.7,2.3h-3.5c0-0.5-0.2-1-0.5-1.3c-0.4-0.3-0.9-0.5-1.4-0.5c-0.5,0-1,0.1-1.4,0.4
			c-0.5,0.4-0.7,1.1-0.3,1.7c0.1,0.1,0.2,0.3,0.4,0.3c0.6,0.4,1.3,0.7,2.1,0.9c0.8,0.2,1.7,0.6,2.4,1c1.4,0.7,2.3,2.1,2.3,3.7
			c0,1.2-0.5,2.2-1.4,2.9c-1.1,0.8-2.5,1.1-3.9,1.1c-1.1,0-2.1-0.2-3.1-0.6c-0.9-0.3-1.6-0.9-2.1-1.7c-0.5-0.7-0.7-1.6-0.7-2.5h3.5
			c-0.1,0.6,0.2,1.2,0.6,1.7c0.6,0.4,1.2,0.6,1.9,0.5c0.5,0,0.9-0.1,1.3-0.4C77.5,134.4,77.6,134.1,77.6,133.7z"/>
		<path class="st0" d="M101.7,137.5h-3.4l-5-8.9v8.9h-3.5v-14.2h3.4l5,8.9v-8.9h3.4L101.7,137.5z"/>
		<path class="st0" d="M113.6,131.4h-5.4v3.4h6.4v2.6h-9.8v-14.2h9.8v2.7h-6.4v3h5.4V131.4z"/>
	</g>
</g>
</svg>
