<?xml version="1.0" encoding="utf-8"?>
<!-- Generator: Adobe Illustrator 20.0.0, SVG Export Plug-In . SVG Version: 6.00 Build 0)  -->
<svg version="1.1" id="Layer_1" xmlns="http://www.w3.org/2000/svg" xmlns:xlink="http://www.w3.org/1999/xlink" x="0px" y="0px"
	 viewBox="0 0 217 196.6" style="enable-background:new 0 0 217 196.6;" xml:space="preserve">
<style type="text/css">
	.st0{fill:#FFB149;}
	.st1{fill:#3A2256;}
</style>
<title>who-we-are-sml-icon</title>
<g id="Layer_2">
	<g id="home_section_buttons">
		<path class="st0" d="M192.3,0.1C127.6,8.8,63.5,11.1,0,0v196.6c12.7-6.6,26.1-11.5,40-14.6c43.4-10.2,90-5,135.2,0l12.6,1.4
			c0.2-0.4,0.4-0.9,0.6-1.4c0,0,0.4-0.9,0.5-1.2c9.1-19.1,19.7-37.7,25-58.9C224.2,78.6,206.6,40.6,192.3,0.1z"/>
		<path class="st1" d="M134.3,21.7C105,19.2,97,44.3,97,44.3v0.1c0,0-8.3-25.2-37.7-22.7C44.7,22.9,32.6,33.6,29.6,48
			c0,0.2-0.1,0.5-0.1,0.7c4.2,1.4,21.3,7.3,21.7,7.5l6.1,2.1l3.6,1.2l5.3,1.8c1.7,0.6,3.5,1.1,5.2,1.7c0.9,0.4,1.9,0.6,2.8,0.5
			c0.9-0.1,1.8-0.3,2.7-0.5c1.3-0.4,2.5-0.9,3.7-1.3c3.2-1.2,6.4-2.5,9.7-3.7c1.7-0.7,3.7-0.6,5.4,0.3l1.1,0.6V59
			c-0.7,0.2-1.4,0.4-2.1,0.5c-2.2,0.4-3.8,1.4-4.6,3.3c-0.3,0.8-0.5,1.6-0.9,2.3c-0.7,1.5-1.5,3-2.3,4.6c-0.5,0.9-0.9,1.9-1.1,2.9
			c-0.1,0.8,0.5,1.6,1.3,1.9c1.4,0.6,3,0.7,4.4,0.2c1.8-0.6,3.5-1.7,4.8-3.1c1.1-1.1,2-2.3,2.7-3.7c0.2-0.3,0.4-0.4,0.8-0.3
			s1,0.2,1.5,0.4c2.2,0.5,4.5,1.1,6.7,1.6c2,0.5,4,1.2,5.8,2.3c1.8,1.1,3.7,2.3,5.5,3.4c2.6,1.6,5.2,3.1,7.8,4.7
			c1.3,0.8,2.1,1.8,1.7,3.2c-0.2,0.7-0.6,1.4-1,2c-0.5,0.7-1.4,1-2.3,0.9c-1-0.1-2-0.4-2.8-0.8c-2.1-1-4.1-2.1-6.2-3.1
			c-0.7-0.3-1.3-0.7-2-1c1.2,0.8,2.4,1.4,3.5,2.1c1.9,1,3.6,2.4,5,3.9c0.8,0.8,1.1,1.9,0.8,3c-0.4,0.9-1.2,1.6-2.2,1.7
			c-1.2,0.2-2.5-0.1-3.6-0.6c-1.3-0.6-2.6-1.3-3.9-2c-0.8-0.4-1.7-0.8-2.5-1.2c0.4,0.3,0.9,0.6,1.3,0.9c1.1,0.8,2.2,1.6,3.1,2.5
			c0.7,0.6,0.8,1.6,0.2,2.3c-1,1.2-2.6,1.8-4.1,1.4c-1.8-0.3-3.5-0.9-5.1-1.8c-0.8-0.4-1.5-0.8-2.1-1.1c0.7,0.7,1.6,1.4,2.3,2.3
			c0.6,0.6,0.7,1.5,0.2,2.2c-0.5,0.6-1.2,1-1.9,1.1c-1.4,0.3-2.8,0-3.9-0.7c-0.4-0.2-0.3-0.3-0.1-0.6c0.2-0.2,0.3-0.4,0.4-0.6
			c0.5-0.9,0.5-1.9,0-2.8c-0.7-1.1-1.8-2-3.1-2.4c-0.9-0.3-1.8-0.5-2.7-0.4c0-0.3,0-0.7,0-1C96,88,95.1,87.1,94,86.6
			c-1.7-1.1-3.9-1.2-5.7-0.3c-1.1,0.6-2,1.4-2.7,2.4l-0.4,0.5c-0.2-1-0.8-1.8-1.6-2.4c-2.2-1.6-5-2.1-7.6-1.3
			c-0.3,0.1-0.6,0.1-0.8,0c-1.2-0.5-2.3-1-3.5-1.5c-2.9-1.2-5.9-2.5-8.8-3.6C61,79.6,59,79,57,78.3s-17.2-5.7-24.7-8.2l0.4,0.8
			c0.1,0.2,0.2,0.5,0.3,0.7c0,0,13.9,30,64.1,57.1l0,0c29.6-16.2,46.7-33.5,55.6-44.8l0.9-1.1c-8.4-0.5-19-1.1-22.5-1.3
			c-0.3,0-0.6,0-0.7-0.3c-0.5-1-1.3-1.8-2.2-2.4c-3.4-2.1-6.8-4.1-10.3-6.2c-1.4-0.9-2.9-1.8-4.4-2.6c-2.1-1-4.3-1.7-6.6-2.2
			c-2.2-0.5-4.4-1-6.6-1.5c-0.5-0.1-0.7-0.3-0.7-0.7c-0.4-1.2-1.4-2-2.7-2l0.3,0.2c1.1,0.8,1.4,1.5,0.9,2.6c-0.5,1-1.1,2-1.8,2.9
			c-0.9,1.3-2.1,2.4-3.4,3.2c-0.8,0.5-1.8,0.9-2.8,1c-0.4,0-0.7,0-1.1,0c-1-0.1-1.5-0.4-1.5-1c0-0.2,0.1-0.5,0.2-0.7
			c0.5-1.1,1-2.2,1.6-3.2c0.9-1.8,1.6-3.6,2.3-5.4c0.3-1,1-1.8,2-2.2c1.1-0.3,2.2-0.6,3.2-0.9c1.6-0.5,3.2-0.9,4.8-1.5
			c1.8-0.7,3.7-0.6,5.4,0.2c1.8,1,3.6,2.1,5.3,3.1c1.2,0.7,2.4,1.3,3.6,1.8c1.9,0.7,3.8,1.1,5.8,1.1c2.6,0,5.1,0.1,7.7,0.1
			c3.1,0,6.1,0.1,9.2,0.1s18.6,0.8,24.6,0.9c0.1-0.2,0.1-0.5,0.2-0.7C169.2,48,159.6,29,142,23.3C139.5,22.5,136.9,22,134.3,21.7z
			 M69.4,87.7c-1.2,0.2-2.4-0.3-3.2-1.2c-0.7-1.1-0.8-2.5-0.3-3.8l7.1,3C72,86.8,70.8,87.5,69.4,87.7L69.4,87.7z M82.3,91.6
			c-1.3,0.8-2.9,1.2-4.4,1.1c-0.8,0-1.6-0.4-2.1-1.1c-0.7-1-0.9-2.3-0.6-3.6c0.3-1.2,1.6-1.7,3-1.7c0.3,0,0.7,0,1,0
			c1.2,0.1,2.4,0.5,3.4,1.3c1.1,0.7,1.4,2.1,0.7,3.2C83,91.1,82.7,91.4,82.3,91.6z M90.6,95c-0.7,0.5-1.6,0.8-2.5,0.7
			c-1,0-1.9-0.3-2.8-0.8c-0.9-0.4-1.2-1.5-0.8-2.4c0,0,0,0,0-0.1c0.5-0.8,1-1.5,1.5-2.2c0.7-1,1.6-1.9,2.6-2.6
			c1.3-0.9,3.1-0.9,4.5,0.1c0.7,0.3,1.2,0.9,1.4,1.7c0,0.5-0.2,1.1-0.5,1.5c-0.8,1.1-1.6,2.1-2.4,3.1C91.3,94.4,91,94.7,90.6,95z
			 M99.4,96.8c-0.8,0.8-1.8,1.4-2.8,1.7c-0.6,0.2-1.3,0.1-1.9-0.2c-0.6-0.3-1.1-0.7-1.6-1.2c-0.5-0.6-0.5-1.6,0.1-2.1
			c0.8-0.9,1.6-1.9,2.4-2.8c0.5-0.7,1.5-1,2.4-0.6c0.8,0.2,1.5,0.6,2.2,1.2c0.4,0.3,0.6,0.8,0.6,1.3
			C100.7,95.2,100.2,96.1,99.4,96.8L99.4,96.8z"/>
		<path class="st1" d="M41.8,148.6l1.6-8.9h3.4l-3,14.2h-3.6l-1.9-8.1l-1.9,8.2h-3.5l-3-14.2h3.4l1.6,8.9l2-8.9h2.9L41.8,148.6z"/>
		<path class="st1" d="M61,154h-3.4v-6h-5v6h-3.5v-14.3h3.4v5.6h5v-5.6H61V154z"/>
		<path class="st1" d="M76.2,147.1c0,1.3-0.2,2.5-0.8,3.7c-0.5,1-1.2,1.9-2.2,2.5c-1,0.6-2.1,0.9-3.2,0.9c-1.1,0-2.2-0.3-3.2-0.8
			c-0.9-0.6-1.7-1.4-2.2-2.4c-0.5-1.1-0.8-2.3-0.8-3.6v-0.8c0-1.3,0.2-2.5,0.8-3.7c0.5-1,1.2-1.9,2.2-2.5c2-1.2,4.5-1.2,6.5,0
			c1,0.6,1.7,1.4,2.2,2.4c0.5,1.1,0.8,2.4,0.8,3.6L76.2,147.1z M72.7,146.5c0.1-1.1-0.2-2.2-0.7-3.2c-0.4-0.7-1.2-1.1-2-1.1
			c-1.7,0-2.6,1.3-2.7,3.9v1c-0.1,1.1,0.2,2.2,0.7,3.2c0.4,0.7,1.2,1.2,2,1.2c0.8,0,1.6-0.4,2-1.1c0.5-1,0.8-2.1,0.7-3.2L72.7,146.5
			z"/>
		<path class="st1" d="M96,148.6l1.6-8.9h3.4L98,154h-3.6l-1.9-8.1l-1.9,8.1h-3.5l-3-14.2h3.4l1.6,8.9l2-8.9H94L96,148.6z"/>
		<path class="st1" d="M112.2,147.9h-5.4v3.4h6.4v2.7h-9.8v-14.3h9.8v2.6h-6.4v3h5.4V147.9z"/>
		<path class="st1" d="M129.6,151.3h-4.7l-0.8,2.7h-3.7l5.2-14.2h3.2l5.3,14.3h-3.7L129.6,151.3z M125.7,148.7h3.1l-1.5-4.9
			L125.7,148.7z"/>
		<path class="st1" d="M141.4,148.9h-1.9v5h-3.4v-14.2h5.6c1.4-0.1,2.8,0.3,4,1.1c1,0.8,1.5,1.9,1.4,3.2c0,0.9-0.2,1.7-0.6,2.5
			c-0.5,0.7-1.1,1.2-1.9,1.6l3,5.7v0.2H144L141.4,148.9z M139.6,146.3h2.2c0.5,0,1.1-0.1,1.5-0.5c0.3-0.4,0.5-0.9,0.5-1.4
			c0-0.5-0.1-1-0.5-1.4c-0.4-0.4-0.9-0.6-1.5-0.5h-2.2V146.3z"/>
		<path class="st1" d="M159,147.9h-5.4v3.4h6.4v2.7h-9.8v-14.3h9.8v2.6h-6.4v3h5.4V147.9z"/>
	</g>
</g>
</svg>
