<?xml version="1.0" encoding="utf-8"?>
<!-- Generator: Adobe Illustrator 20.0.0, SVG Export Plug-In . SVG Version: 6.00 Build 0)  -->
<svg version="1.1" id="Layer_1" xmlns="http://www.w3.org/2000/svg" xmlns:xlink="http://www.w3.org/1999/xlink" x="0px" y="0px"
	 viewBox="0 0 136.1 136.2" style="enable-background:new 0 0 136.1 136.2;" xml:space="preserve">
<style type="text/css">
	.st0{fill:#1E2B62;}
</style>
<title>who-heading-sml-icon</title>
<g id="Layer_2">
	<g id="section_head_icons">
		<path class="st0" d="M104.9,0.7C75.6-1.9,67.6,23.3,67.6,23.3v0.1c0,0-8.3-25.2-37.6-22.7C15.3,1.8,3.2,12.5,0.2,26.9
			c0,0.2-0.1,0.5-0.1,0.7c4.2,1.4,21.3,7.3,21.7,7.5l6.1,2.1l3.6,1.2l5.3,1.8c1.7,0.6,3.5,1.1,5.2,1.7c0.9,0.4,1.9,0.6,2.8,0.5
			c0.9-0.1,1.8-0.3,2.7-0.5c1.3-0.4,2.5-0.9,3.7-1.3c3.2-1.2,6.4-2.5,9.7-3.7c1.7-0.7,3.7-0.6,5.4,0.3l1.1,0.6v0.1
			c-0.7,0.2-1.4,0.4-2.1,0.5c-2.2,0.4-3.8,1.4-4.6,3.3c-0.3,0.8-0.5,1.6-0.9,2.3c-0.7,1.5-1.5,3-2.3,4.6c-0.5,0.9-0.9,1.9-1.1,2.9
			c-0.1,0.8,0.5,1.6,1.3,1.9c1.4,0.6,3,0.7,4.4,0.2c1.9-0.6,3.5-1.7,4.8-3.1c1.1-1.1,2-2.3,2.7-3.7c0.2-0.3,0.4-0.4,0.8-0.3
			s1,0.2,1.5,0.4c2.2,0.5,4.5,1.1,6.7,1.6c2,0.5,4,1.2,5.7,2.3c1.8,1.1,3.7,2.3,5.5,3.4c2.6,1.6,5.2,3.1,7.8,4.7
			c1.3,0.8,2.1,1.8,1.7,3.2c-0.2,0.7-0.6,1.4-1,2c-0.5,0.7-1.4,1-2.3,0.9c-1-0.1-2-0.4-2.8-0.8c-2.1-1-4.1-2.1-6.2-3.1
			c-0.7-0.3-1.3-0.7-2-1c1.2,0.8,2.4,1.4,3.5,2.1c1.9,1,3.6,2.4,5,3.9c0.8,0.8,1.1,1.9,0.8,3c-0.4,0.9-1.2,1.6-2.2,1.7
			c-1.2,0.2-2.5-0.1-3.6-0.6c-1.3-0.6-2.6-1.3-3.9-2c-0.8-0.4-1.7-0.8-2.5-1.2c0.4,0.3,0.9,0.6,1.3,0.9c1.1,0.8,2.2,1.6,3.1,2.5
			c0.7,0.6,0.8,1.6,0.2,2.3c-1,1.2-2.6,1.8-4.1,1.4c-1.8-0.3-3.5-0.9-5.1-1.8c-0.8-0.4-1.5-0.8-2.1-1.1c0.7,0.7,1.6,1.4,2.3,2.3
			c0.6,0.6,0.7,1.5,0.2,2.2c-0.5,0.6-1.2,1-1.9,1.1c-1.4,0.3-2.8,0-3.9-0.7c-0.4-0.2-0.3-0.3-0.1-0.6c0.2-0.2,0.3-0.4,0.4-0.6
			c0.5-0.9,0.6-1.9,0.2-2.9c-0.7-1.1-1.8-2-3.1-2.4C68.8,69,67.9,68.9,67,69c0-0.3,0-0.7,0-1c-0.4-1.1-1.2-2-2.3-2.5
			c-1.7-1.1-3.9-1.2-5.7-0.3c-1.1,0.6-2,1.4-2.7,2.4l-0.4,0.5c-0.2-1-0.8-1.8-1.6-2.4c-2.1-1.6-5-2.1-7.5-1.3
			c-0.3,0.1-0.6,0.1-0.8,0c-1.2-0.5-2.3-1-3.5-1.5c-2.9-1.2-5.9-2.5-8.8-3.6c-1.9-0.7-3.9-1.4-5.9-2S10.5,51.6,3,49.1l0.4,0.8
			c0.1,0.2,0.2,0.5,0.3,0.7c0,0,13.9,30,64.1,57.1l0,0c29.6-16.3,46.6-33.6,55.6-44.8l0.9-1.1c-8.4-0.5-19-1-22.5-1.3
			c-0.3,0-0.6,0-0.7-0.3c-0.5-1-1.3-1.8-2.2-2.4c-3.4-2.1-6.8-4.1-10.3-6.2c-1.4-0.9-2.9-1.8-4.4-2.5c-2.1-1-4.3-1.7-6.6-2.2
			c-2.2-0.5-4.4-1-6.6-1.5c-0.5-0.1-0.7-0.3-0.7-0.7c-0.4-1.2-1.4-2-2.7-2l0.3,0.2c1.1,0.8,1.4,1.5,0.9,2.6c-0.5,1-1.1,2-1.8,2.9
			c-0.9,1.3-2.1,2.4-3.4,3.2c-0.8,0.5-1.8,0.9-2.8,1c-0.4,0-0.7,0-1.1,0c-1-0.1-1.5-0.4-1.5-1c0-0.2,0.1-0.5,0.2-0.7
			c0.5-1.1,1-2.2,1.5-3.2c0.9-1.8,1.6-3.6,2.3-5.4c0.3-1,1-1.8,2-2.2c1.1-0.3,2.2-0.6,3.2-0.9c1.6-0.5,3.2-0.9,4.8-1.5
			c1.8-0.7,3.7-0.6,5.4,0.2c1.8,1,3.6,2.1,5.3,3.1c1.1,0.7,2.3,1.3,3.6,1.8c1.9,0.7,3.9,1,5.9,1c2.6,0,5.1,0.1,7.7,0.1
			c3.1,0,6.2,0.1,9.2,0.1s18.6,0.8,24.6,1c0.1-0.2,0.1-0.5,0.2-0.7c5.8-17.6-3.8-36.5-21.4-42.3C110.2,1.4,107.6,0.9,104.9,0.7z
			 M40,66.7c-1.2,0.2-2.4-0.3-3.2-1.2c-0.7-1.1-0.8-2.5-0.3-3.8l7.1,3.1C42.6,65.7,41.4,66.4,40,66.7L40,66.7z M52.9,70.5
			c-1.3,0.8-2.9,1.2-4.5,1.1c-0.8,0-1.6-0.4-2.1-1.1c-0.7-1-0.9-2.3-0.6-3.6c0.3-1.2,1.6-1.7,3-1.7c0.3,0,0.7,0,1,0
			c1.2,0.1,2.4,0.5,3.4,1.3c1.1,0.7,1.4,2.1,0.7,3.2C53.6,70,53.3,70.3,52.9,70.5z M61.2,73.9c-0.7,0.5-1.6,0.8-2.5,0.7
			c-1,0-1.9-0.3-2.8-0.8c-0.9-0.4-1.2-1.5-0.8-2.4c0,0,0,0,0-0.1c0.5-0.8,1-1.5,1.5-2.2c0.7-1,1.6-1.9,2.6-2.6
			c1.3-0.9,3.1-0.9,4.5,0.1c0.7,0.3,1.2,0.9,1.4,1.7c0,0.6-0.2,1.1-0.6,1.5c-0.8,1.1-1.5,2.1-2.3,3.1C61.9,73.3,61.6,73.6,61.2,73.9
			z M70,75.7c-0.8,0.8-1.8,1.4-2.8,1.7c-0.6,0.2-1.3,0.1-1.9-0.2c-0.6-0.3-1.1-0.7-1.6-1.2c-0.5-0.6-0.5-1.5,0.1-2.1
			c0.8-0.9,1.6-1.9,2.4-2.8c0.6-0.7,1.6-1,2.4-0.5c0.8,0.2,1.5,0.6,2.2,1.2c0.4,0.3,0.6,0.8,0.6,1.3C71.3,74.1,70.8,75,70,75.7
			L70,75.7z"/>
		<path class="st0" d="M13.4,130.6l1.6-8.9h3.4l-3,14.2h-3.6l-1.9-8.1l-1.9,8.1H4.5l-3-14.2h3.4l1.6,8.9l2-8.9h2.9L13.4,130.6z"/>
		<path class="st0" d="M32.6,135.9h-3.4v-5.9h-5v5.9h-3.5v-14.2h3.4v5.6h5v-5.6h3.4L32.6,135.9z"/>
		<path class="st0" d="M47.9,129.1c0,1.3-0.2,2.5-0.8,3.7c-0.5,1-1.2,1.9-2.2,2.5c-1,0.6-2.1,0.9-3.2,0.9c-1.1,0-2.2-0.3-3.2-0.8
			c-0.9-0.6-1.7-1.4-2.2-2.4c-0.5-1.1-0.8-2.3-0.8-3.6v-0.8c0-1.3,0.2-2.5,0.8-3.7c0.5-1,1.2-1.9,2.2-2.5c2-1.2,4.5-1.2,6.5,0
			c1,0.6,1.7,1.4,2.2,2.4c0.5,1.1,0.8,2.4,0.8,3.6L47.9,129.1z M44.4,128.5c0.1-1.1-0.2-2.2-0.7-3.2c-0.4-0.7-1.2-1.1-2-1.1
			c-1.7,0-2.6,1.3-2.7,3.9v1c-0.1,1.1,0.2,2.2,0.7,3.2c0.4,0.7,1.2,1.2,2.1,1.1c0.8,0,1.6-0.4,2-1.1c0.5-1,0.8-2.1,0.7-3.2
			L44.4,128.5z"/>
		<path class="st0" d="M67.6,130.6l1.6-8.9h3.4l-3,14.2h-3.6l-1.9-8.1l-1.9,8.1h-3.5l-3-14.2h3.4l1.6,8.9l2-8.9h2.9L67.6,130.6z"/>
		<path class="st0" d="M83.8,129.8h-5.4v3.4h6.4v2.6H75v-14.2h9.8v2.7h-6.4v3h5.4V129.8z"/>
		<path class="st0" d="M101.2,133.2h-4.7l-0.8,2.7h-3.6l5.2-14.2h3.2l5.2,14.2h-3.7L101.2,133.2z M97.3,130.6h3.1l-1.5-4.9
			L97.3,130.6z"/>
		<path class="st0" d="M113.1,130.8h-1.9v5h-3.4v-14.2h5.6c1.4-0.1,2.8,0.3,4,1.1c1,0.8,1.5,1.9,1.4,3.2c0,0.9-0.2,1.7-0.6,2.5
			c-0.5,0.7-1.1,1.2-1.9,1.6l3,5.7v0.1h-3.7L113.1,130.8z M111.2,128.2h2.2c0.5,0,1.1-0.1,1.5-0.5c0.3-0.4,0.5-0.9,0.5-1.4
			c0-0.5-0.1-1-0.5-1.4c-0.4-0.4-0.9-0.6-1.5-0.5h-2.2V128.2z"/>
		<path class="st0" d="M130.6,129.8h-5.4v3.4h6.4v2.6h-9.8v-14.2h9.8v2.7h-6.4v3h5.4V129.8z"/>
	</g>
</g>
</svg>
