<?xml version="1.0" encoding="utf-8"?>
<!-- Generator: Adobe Illustrator 20.0.0, SVG Export Plug-In . SVG Version: 6.00 Build 0)  -->
<svg version="1.1" id="Layer_1" xmlns="http://www.w3.org/2000/svg" xmlns:xlink="http://www.w3.org/1999/xlink" x="0px" y="0px"
	 viewBox="0 0 209.8 183.1" style="enable-background:new 0 0 209.8 183.1;" xml:space="preserve">
<style type="text/css">
	.st0{fill:#FFB149;}
	.st1{fill:#3A2256;}
</style>
<title>why-stc-sml-icon</title>
<g id="Layer_2">
	<g id="home_section_buttons">
		<path class="st0" d="M20.8,0H0.1c-0.8,50,1.7,99.7,13.6,150c2,8,4.4,15.9,7,23.7v0.8c1.1,2.4,2,4.9,2.8,7.5h0.2l0.4,1.1
			c2.6-0.4,5.2-0.7,7.9-1.1c10.6-1.5,21.2-3.2,31.8-5c49.6-8.8,99.1-9,146,4.7V0H20.8z"/>
		<path class="st1" d="M151,15.8c-22.5-1.9-32.4,12.4-35.7,19.2h0.1c12.1,0,21.1,2.4,27,7.1s8.9,10.6,8.9,17.6
			c0,7.6-2.8,13.5-8.4,17.8c-5.6,4.2-12.4,6.2-20.4,6.2l-1.2,5.4h-15.6L104,69.9c2.2,0.8,4.6,1.3,7,1.2c4.2,0,7.4-1.1,9.5-3.2
			c2.1-2.1,3.2-5,3.2-7.9c0.1-2.8-0.9-5.5-2.7-7.5c-1.9-2-4.6-3.1-7.4-3c-2.5,0-4.8,0.9-6.7,2.5c-2,1.6-3,4.1-3,8.1H79.9
			c0.4-9,3.9-14.5,10.5-18.7c5.9-3.7,13.2-5.7,21.9-6.1c-3.5-6.8-13.7-21.2-36.2-19.3c-21.8,1.5-38.6,25.4-26.2,49.9
			c0,0,10.9,23.7,48.9,48V100h29v14.3c38-24.5,49.7-48.5,49.7-48.5C189.8,41.3,172.9,17.3,151,15.8z"/>
		<path class="st1" d="M113.6,122.8l0.2,0.1l0,0l0.2-0.1H113.6z"/>
		<path class="st1" d="M79.5,141.6l1.6-8.9h3.4l-3,14.2H78l-1.9-8.1l-1.9,8.1h-3.6l-3-14.2h3.4l1.6,8.9l2-8.9h2.9L79.5,141.6z"/>
		<path class="st1" d="M98.8,146.9h-3.4V141h-5v5.9h-3.5v-14.2h3.4v5.6h5v-5.6h3.4L98.8,146.9z"/>
		<path class="st1" d="M106.9,138.9l2.6-6.2h3.7l-4.6,9.1v5.1h-3.5v-5.1l-4.6-9.1h3.7L106.9,138.9z"/>
		<path class="st1" d="M128.6,143.1c0-0.4-0.2-0.9-0.6-1.1c-0.6-0.4-1.2-0.7-1.9-0.9c-0.7-0.2-1.5-0.5-2.2-0.9
			c-1.8-0.9-2.8-2.2-2.8-3.7c0-0.8,0.2-1.5,0.7-2.1c0.5-0.6,1.2-1.1,1.9-1.4c0.9-0.3,1.9-0.5,2.8-0.5c0.9,0,1.9,0.2,2.8,0.6
			c0.8,0.3,1.4,0.9,1.9,1.6c0.5,0.7,0.7,1.5,0.7,2.3h-3.4c0-0.5-0.2-1-0.5-1.4c-0.4-0.3-0.9-0.5-1.4-0.5c-0.5,0-1,0.1-1.4,0.4
			c-0.5,0.4-0.7,1.1-0.3,1.7c0.1,0.1,0.2,0.3,0.4,0.3c0.6,0.4,1.3,0.7,2.1,0.9c0.8,0.2,1.7,0.6,2.4,1c1.4,0.7,2.3,2.1,2.3,3.7
			c0,1.2-0.5,2.2-1.4,2.9c-1.1,0.8-2.5,1.1-3.9,1.1c-1.1,0-2.1-0.2-3.1-0.6c-0.9-0.3-1.6-0.9-2.1-1.7c-0.5-0.7-0.7-1.6-0.7-2.5h3.4
			c-0.1,0.6,0.2,1.2,0.6,1.7c0.6,0.4,1.2,0.6,1.9,0.5c0.5,0,0.9-0.1,1.3-0.4C128.4,143.9,128.6,143.5,128.6,143.1z"/>
		<path class="st1" d="M145.9,135.4h-4.3v11.6h-3.4v-11.6H134v-2.7h11.9V135.4z"/>
		<path class="st1" d="M159.6,142.1c0,0.9-0.3,1.8-0.8,2.6c-0.5,0.8-1.2,1.4-2.1,1.8c-0.9,0.4-2,0.6-3,0.6c-1.7,0.1-3.3-0.6-4.4-1.8
			c-1.2-1.5-1.7-3.3-1.6-5.2v-0.7c0-1.3,0.2-2.5,0.7-3.7c0.4-1,1.2-1.8,2.1-2.4c1-0.6,2-0.9,3.2-0.9c1.5-0.1,3,0.4,4.2,1.4
			c1.1,1,1.7,2.3,1.8,3.8h-3.4c0-0.7-0.2-1.4-0.6-1.9c-0.5-0.4-1.2-0.6-1.9-0.6c-0.8-0.1-1.5,0.3-1.9,1c-0.5,0.9-0.7,2-0.6,3.1v1
			c-0.1,1.1,0.1,2.2,0.6,3.2c0.4,0.7,1.2,1.1,2,1c0.7,0,1.3-0.2,1.8-0.6c0.5-0.5,0.7-1.1,0.7-1.8L159.6,142.1z"/>
	</g>
</g>
</svg>
