<?xml version="1.0" encoding="utf-8"?>
<!-- Generator: Adobe Illustrator 20.0.0, SVG Export Plug-In . SVG Version: 6.00 Build 0)  -->
<svg version="1.1" id="Layer_1" xmlns="http://www.w3.org/2000/svg" xmlns:xlink="http://www.w3.org/1999/xlink" x="0px" y="0px"
	 viewBox="0 0 136.7 134.1" style="enable-background:new 0 0 136.7 134.1;" xml:space="preserve">
<style type="text/css">
	.st0{fill:#2D7781;}
</style>
<title>why-heading-sml-icon</title>
<g id="Layer_2">
	<g id="section_head_icons">
		<path class="st0" d="M105.6,0.7C83.1-1.2,73.2,13.1,69.8,19.9h0.1c12.1,0,21.1,2.4,27,7.1s8.9,10.6,8.9,17.6
			c0,7.6-2.8,13.5-8.4,17.8c-5.7,4.2-12.5,6.2-20.5,6.2l-1.2,5.3H60.1l-1.5-19.2c2.2,0.8,4.6,1.3,7,1.2c4.2,0,7.4-1,9.5-3.2
			c2.1-2.1,3.2-4.9,3.2-7.9c0.1-2.8-0.9-5.5-2.7-7.5c-1.9-2-4.6-3.1-7.4-3c-2.5,0-4.8,0.9-6.7,2.5c-2,1.6-3,4.1-3,8.1h-24
			c0.4-9,3.9-14.5,10.5-18.7c5.9-3.6,13.2-5.7,21.9-6.1C63.3,13.2,53.2-1.2,30.6,0.7C8.8,2.2-8,26.1,4.4,50.7c0,0,10.9,23.7,48.9,48
			V84.9h29v14.3c38-24.5,49.6-48.5,49.6-48.5C144.4,26.1,127.4,2.2,105.6,0.7z"/>
		<path class="st0" d="M68.2,107.6l0.2,0.1l0,0l0.2-0.1H68.2z"/>
		<path class="st0" d="M34.1,128.5l1.6-8.9h3.4l-3,14.2h-3.6l-1.9-8.1l-1.9,8.1h-3.6l-3-14.2h3.4l1.6,8.9l2-8.9H32L34.1,128.5z"/>
		<path class="st0" d="M53.3,133.9h-3.4V128h-5v5.9h-3.5v-14.2h3.4v5.6h5v-5.6h3.4L53.3,133.9z"/>
		<path class="st0" d="M61.4,125.8l2.6-6.2h3.7l-4.5,9.1v5.1h-3.5v-5.1l-4.6-9.1h3.7L61.4,125.8z"/>
		<path class="st0" d="M83.1,130.1c0-0.5-0.2-0.9-0.5-1.2c-0.6-0.4-1.2-0.7-1.9-0.9c-0.7-0.2-1.5-0.5-2.2-0.9
			c-1.8-0.9-2.8-2.2-2.8-3.7c0-0.8,0.2-1.5,0.7-2.1s1.2-1.1,1.9-1.4c0.9-0.3,1.9-0.5,2.8-0.5s1.9,0.2,2.8,0.6
			c0.8,0.3,1.4,0.8,1.9,1.5s0.7,1.5,0.7,2.3h-3.4c0-0.5-0.2-1-0.5-1.3c-0.4-0.3-0.9-0.5-1.4-0.5s-1,0.1-1.4,0.4
			c-0.5,0.4-0.7,1.1-0.3,1.7c0.1,0.1,0.2,0.3,0.4,0.3c0.6,0.4,1.3,0.7,2.1,0.9c0.8,0.2,1.7,0.6,2.4,1c1.4,0.7,2.3,2.1,2.3,3.7
			c0,1.2-0.5,2.2-1.4,2.9c-1.1,0.8-2.5,1.1-3.9,1.1c-1.1,0-2.1-0.2-3.1-0.6c-0.9-0.3-1.6-0.9-2.1-1.7c-0.5-0.7-0.7-1.6-0.7-2.5h3.4
			c-0.1,0.6,0.2,1.2,0.6,1.7c0.6,0.4,1.2,0.6,1.9,0.5c0.5,0,0.9-0.1,1.3-0.4C82.9,130.8,83.1,130.5,83.1,130.1z"/>
		<path class="st0" d="M100.5,122.3h-4.2v11.6h-3.5v-11.6h-4.2v-2.7h11.9L100.5,122.3z"/>
		<path class="st0" d="M114.1,129.1c0,0.9-0.3,1.8-0.8,2.6s-1.2,1.4-2.1,1.8c-0.9,0.4-2,0.6-3,0.6c-1.7,0.1-3.3-0.6-4.4-1.8
			c-1.2-1.5-1.7-3.3-1.6-5.2v-0.7c0-1.3,0.2-2.5,0.7-3.7c0.4-1,1.2-1.8,2.1-2.4c1-0.6,2-0.9,3.2-0.8c1.5-0.1,3,0.4,4.2,1.4
			c1.1,1,1.7,2.3,1.8,3.8h-3.4c0-0.7-0.2-1.4-0.7-1.9c-0.5-0.4-1.2-0.6-1.9-0.6c-0.8-0.1-1.5,0.3-1.9,1c-0.5,0.9-0.7,2-0.6,3.1v1
			c-0.1,1.1,0.1,2.2,0.6,3.3c0.4,0.7,1.2,1.1,2,1c0.7,0,1.3-0.2,1.8-0.6c0.5-0.5,0.7-1.1,0.7-1.8L114.1,129.1z"/>
	</g>
</g>
</svg>
